<mxfile host="app.diagrams.net" agent="Mozilla/5.0 (Windows NT 10.0; Win64; x64) AppleWebKit/537.36 (KHTML, like Gecko) Chrome/138.0.0.0 Safari/537.36" version="27.1.6" pages="4">
  <diagram name="Data Architecture" id="GwMBleBC5_kutXXXFG5A">
    <mxGraphModel dx="1665" dy="795" grid="0" gridSize="10" guides="1" tooltips="1" connect="1" arrows="1" fold="1" page="1" pageScale="1" pageWidth="850" pageHeight="1100" math="0" shadow="0">
      <root>
        <mxCell id="0" />
        <mxCell id="1" parent="0" />
        <mxCell id="fu8yQp-l4kPOa9yjXl17-7" value="" style="rounded=0;whiteSpace=wrap;html=1;rotation=90;dashed=1;fontColor=default;labelBackgroundColor=none;fillColor=none;" parent="1" vertex="1">
          <mxGeometry x="280" y="39" width="520" height="680" as="geometry" />
        </mxCell>
        <mxCell id="fu8yQp-l4kPOa9yjXl17-54" value="" style="rounded=0;whiteSpace=wrap;html=1;direction=south;strokeColor=light-dark(#CD7F32,#C0C0C0);fillColor=none;" parent="1" vertex="1">
          <mxGeometry x="220" y="160" width="180" height="440" as="geometry" />
        </mxCell>
        <mxCell id="fu8yQp-l4kPOa9yjXl17-16" value="" style="rounded=0;whiteSpace=wrap;html=1;direction=south;strokeColor=light-dark(#C0C0C0,#C0C0C0);fillColor=none;" parent="1" vertex="1">
          <mxGeometry x="460" y="160" width="200" height="440" as="geometry" />
        </mxCell>
        <mxCell id="fu8yQp-l4kPOa9yjXl17-18" value="" style="rounded=0;whiteSpace=wrap;html=1;direction=south;strokeColor=light-dark(#FFD700,#FFD700);fillColor=none;" parent="1" vertex="1">
          <mxGeometry x="700" y="160" width="170" height="440" as="geometry" />
        </mxCell>
        <mxCell id="fu8yQp-l4kPOa9yjXl17-2" value="" style="rounded=0;whiteSpace=wrap;html=1;rotation=90;dashed=1;fillColor=none;strokeColor=default;" parent="1" vertex="1">
          <mxGeometry x="-160.5" y="319.5" width="520" height="119" as="geometry" />
        </mxCell>
        <mxCell id="fu8yQp-l4kPOa9yjXl17-5" value="&lt;b&gt;Source&lt;/b&gt;" style="rounded=1;whiteSpace=wrap;html=1;" parent="1" vertex="1">
          <mxGeometry x="60" y="100" width="80" height="30" as="geometry" />
        </mxCell>
        <mxCell id="fu8yQp-l4kPOa9yjXl17-8" value="&lt;b&gt;Data Warehouse&lt;/b&gt;" style="rounded=1;whiteSpace=wrap;html=1;" parent="1" vertex="1">
          <mxGeometry x="455" y="100" width="150" height="30" as="geometry" />
        </mxCell>
        <mxCell id="fu8yQp-l4kPOa9yjXl17-9" value="" style="rounded=0;whiteSpace=wrap;html=1;rotation=90;dashed=1;" parent="1" vertex="1">
          <mxGeometry x="720" y="320" width="520" height="120" as="geometry" />
        </mxCell>
        <mxCell id="fu8yQp-l4kPOa9yjXl17-10" value="&lt;b&gt;Consumer&lt;/b&gt;" style="rounded=1;whiteSpace=wrap;html=1;" parent="1" vertex="1">
          <mxGeometry x="940" y="100" width="80" height="30" as="geometry" />
        </mxCell>
        <mxCell id="fu8yQp-l4kPOa9yjXl17-11" value="&lt;span style=&quot;color: rgb(1, 4, 9); font-family: -apple-system, BlinkMacSystemFont, &amp;quot;Segoe UI&amp;quot;, &amp;quot;Noto Sans&amp;quot;, Helvetica, Arial, sans-serif, &amp;quot;Apple Color Emoji&amp;quot;, &amp;quot;Segoe UI Emoji&amp;quot;; text-align: start; background-color: rgb(255, 255, 255);&quot;&gt;&lt;b style=&quot;&quot;&gt;&lt;font style=&quot;font-size: 20px;&quot;&gt;Medallion Architecture&lt;/font&gt;&lt;/b&gt;&lt;/span&gt;" style="rounded=1;whiteSpace=wrap;html=1;align=center;" parent="1" vertex="1">
          <mxGeometry x="38" y="7" width="363" height="60" as="geometry" />
        </mxCell>
        <mxCell id="fu8yQp-l4kPOa9yjXl17-15" value="Bronze" style="rounded=1;whiteSpace=wrap;html=1;fontColor=light-dark(#000000,#000000);strokeColor=light-dark(#000000,#FFD966);fillColor=light-dark(#CD7F32,#CD7F32);labelBackgroundColor=none;labelBorderColor=none;" parent="1" vertex="1">
          <mxGeometry x="275" y="141" width="80" height="30" as="geometry" />
        </mxCell>
        <mxCell id="fu8yQp-l4kPOa9yjXl17-17" value="Silver" style="rounded=1;whiteSpace=wrap;html=1;fontColor=light-dark(#000000,#000000);strokeColor=light-dark(#000000,#CD7F32);fillColor=light-dark(#C0C0C0,#C0C0C0);labelBackgroundColor=none;labelBorderColor=none;opacity=50;" parent="1" vertex="1">
          <mxGeometry x="520" y="141" width="80" height="30" as="geometry" />
        </mxCell>
        <mxCell id="fu8yQp-l4kPOa9yjXl17-19" value="Gold" style="rounded=1;whiteSpace=wrap;html=1;fontColor=light-dark(#000000,#000000);strokeColor=light-dark(#000000,#FFD966);fillColor=light-dark(#FFD700,#FFD700);labelBackgroundColor=none;labelBorderColor=none;opacity=50;" parent="1" vertex="1">
          <mxGeometry x="740" y="140" width="80" height="30" as="geometry" />
        </mxCell>
        <mxCell id="fu8yQp-l4kPOa9yjXl17-23" value="Raw Data" style="sketch=0;shadow=0;dashed=0;html=1;strokeColor=none;labelPosition=center;verticalLabelPosition=bottom;verticalAlign=top;outlineConnect=0;align=center;shape=mxgraph.office.databases.database_mini_2;fillColor=#CD7F32;" parent="1" vertex="1">
          <mxGeometry x="300" y="200" width="35" height="42" as="geometry" />
        </mxCell>
        <mxCell id="fu8yQp-l4kPOa9yjXl17-25" value="" style="image;aspect=fixed;html=1;points=[];align=center;fontSize=12;image=img/lib/azure2/general/Folder_Blank.svg;" parent="1" vertex="1">
          <mxGeometry x="75.34" y="155" width="36.96" height="30" as="geometry" />
        </mxCell>
        <mxCell id="fu8yQp-l4kPOa9yjXl17-24" value="" style="image;aspect=fixed;html=1;points=[];align=center;fontSize=12;image=img/lib/azure2/general/File.svg;" parent="1" vertex="1">
          <mxGeometry x="101.67" y="171" width="16.23" height="20" as="geometry" />
        </mxCell>
        <mxCell id="fu8yQp-l4kPOa9yjXl17-26" value="CRM" style="rounded=0;whiteSpace=wrap;html=1;fillColor=none;strokeColor=none;" parent="1" vertex="1">
          <mxGeometry x="70.45" y="191" width="50" height="30" as="geometry" />
        </mxCell>
        <mxCell id="fu8yQp-l4kPOa9yjXl17-27" value="" style="image;aspect=fixed;html=1;points=[];align=center;fontSize=12;image=img/lib/azure2/general/Folder_Blank.svg;" parent="1" vertex="1">
          <mxGeometry x="77.59" y="236" width="35.73" height="29" as="geometry" />
        </mxCell>
        <mxCell id="fu8yQp-l4kPOa9yjXl17-28" value="" style="image;aspect=fixed;html=1;points=[];align=center;fontSize=12;image=img/lib/azure2/general/File.svg;" parent="1" vertex="1">
          <mxGeometry x="101.67" y="255" width="16.23" height="20" as="geometry" />
        </mxCell>
        <mxCell id="fu8yQp-l4kPOa9yjXl17-29" value="ERP" style="rounded=0;whiteSpace=wrap;html=1;fillColor=none;strokeColor=none;" parent="1" vertex="1">
          <mxGeometry x="70.45" y="275" width="50" height="30" as="geometry" />
        </mxCell>
        <mxCell id="fu8yQp-l4kPOa9yjXl17-31" value="Cleaned,&amp;nbsp;&lt;div&gt;Standardized&lt;div&gt;&amp;nbsp;Data&lt;/div&gt;&lt;/div&gt;" style="sketch=0;shadow=0;dashed=0;html=1;strokeColor=none;labelPosition=center;verticalLabelPosition=bottom;verticalAlign=top;outlineConnect=0;align=center;shape=mxgraph.office.databases.database_mini_2;fillColor=#C0C0C0;" parent="1" vertex="1">
          <mxGeometry x="562.5" y="200" width="35" height="42" as="geometry" />
        </mxCell>
        <mxCell id="fu8yQp-l4kPOa9yjXl17-32" value="Business Ready" style="sketch=0;shadow=0;dashed=0;html=1;strokeColor=none;labelPosition=center;verticalLabelPosition=bottom;verticalAlign=top;outlineConnect=0;align=center;shape=mxgraph.office.databases.database_mini_2;fillColor=#FFD700;" parent="1" vertex="1">
          <mxGeometry x="767.5" y="200" width="35" height="42" as="geometry" />
        </mxCell>
        <mxCell id="fu8yQp-l4kPOa9yjXl17-33" value="" style="shape=singleArrow;whiteSpace=wrap;html=1;arrowWidth=0.4666666666666667;arrowSize=0.38571428571428573;fillColor=#99CCFF;" parent="1" vertex="1">
          <mxGeometry x="160" y="225" width="40" height="29" as="geometry" />
        </mxCell>
        <mxCell id="fu8yQp-l4kPOa9yjXl17-35" value="" style="shape=singleArrow;whiteSpace=wrap;html=1;arrowWidth=0.4666666666666667;arrowSize=0.38571428571428573;fillColor=#99CCFF;" parent="1" vertex="1">
          <mxGeometry x="410" y="226" width="50" height="29" as="geometry" />
        </mxCell>
        <mxCell id="fu8yQp-l4kPOa9yjXl17-36" value="" style="shape=singleArrow;whiteSpace=wrap;html=1;arrowWidth=0.4666666666666667;arrowSize=0.38571428571428573;fillColor=#99CCFF;" parent="1" vertex="1">
          <mxGeometry x="660" y="226" width="40" height="29" as="geometry" />
        </mxCell>
        <mxCell id="fu8yQp-l4kPOa9yjXl17-37" value="" style="shape=singleArrow;whiteSpace=wrap;html=1;arrowWidth=0.4666666666666667;arrowSize=0.38571428571428573;fillColor=#99CCFF;" parent="1" vertex="1">
          <mxGeometry x="880" y="226" width="40" height="29" as="geometry" />
        </mxCell>
        <mxCell id="fu8yQp-l4kPOa9yjXl17-46" value="" style="line;strokeWidth=1;rotatable=0;dashed=0;labelPosition=right;align=left;verticalAlign=middle;spacingTop=0;spacingLeft=6;points=[];portConstraint=eastwest;" parent="1" vertex="1">
          <mxGeometry x="285" y="275" width="60" height="10" as="geometry" />
        </mxCell>
        <mxCell id="fu8yQp-l4kPOa9yjXl17-48" value="" style="line;strokeWidth=1;rotatable=0;dashed=0;labelPosition=right;align=left;verticalAlign=middle;spacingTop=0;spacingLeft=6;points=[];portConstraint=eastwest;" parent="1" vertex="1">
          <mxGeometry x="760" y="275" width="60" height="10" as="geometry" />
        </mxCell>
        <mxCell id="fu8yQp-l4kPOa9yjXl17-49" value="&lt;b&gt;Object Type: &lt;/b&gt;Table&lt;div&gt;&lt;b&gt;&lt;br&gt;&lt;/b&gt;&lt;/div&gt;&lt;div style=&quot;text-align: left;&quot;&gt;&lt;b&gt;Load&lt;/b&gt;&lt;/div&gt;&lt;div&gt;&lt;ul&gt;&lt;li style=&quot;text-align: left;&quot;&gt;Batch Processing&lt;/li&gt;&lt;li style=&quot;text-align: left;&quot;&gt;Fulll Load&lt;/li&gt;&lt;li style=&quot;text-align: left;&quot;&gt;Truncate &amp;amp; Insert&lt;/li&gt;&lt;/ul&gt;&lt;div&gt;&lt;b&gt;Data Model: &lt;/b&gt;None (as-is)&lt;/div&gt;&lt;/div&gt;" style="whiteSpace=wrap;html=1;aspect=fixed;fillColor=none;strokeColor=none;" parent="1" vertex="1">
          <mxGeometry x="220" y="275" width="179" height="179" as="geometry" />
        </mxCell>
        <mxCell id="fu8yQp-l4kPOa9yjXl17-50" value="&lt;div style=&quot;text-align: left;&quot;&gt;&lt;b style=&quot;background-color: transparent; color: light-dark(rgb(0, 0, 0), rgb(255, 255, 255));&quot;&gt;Object Type: &lt;/b&gt;&lt;span style=&quot;background-color: transparent; color: light-dark(rgb(0, 0, 0), rgb(255, 255, 255));&quot;&gt;Table&lt;/span&gt;&lt;/div&gt;&lt;div&gt;&lt;b&gt;&lt;br&gt;&lt;/b&gt;&lt;/div&gt;&lt;div style=&quot;text-align: left;&quot;&gt;&lt;b&gt;Load&lt;/b&gt;&lt;/div&gt;&lt;div&gt;&lt;ul&gt;&lt;li style=&quot;text-align: left;&quot;&gt;Batch Processing&lt;/li&gt;&lt;li style=&quot;text-align: left;&quot;&gt;Fulll Load&lt;/li&gt;&lt;li style=&quot;text-align: left;&quot;&gt;Truncate &amp;amp; Insert&lt;/li&gt;&lt;/ul&gt;&lt;div style=&quot;text-align: left;&quot;&gt;&lt;b&gt;Transformation:&lt;/b&gt;&lt;/div&gt;&lt;div style=&quot;text-align: left;&quot;&gt;&lt;ul&gt;&lt;li&gt;Data Cleaning&lt;/li&gt;&lt;li&gt;Data Standardization&lt;/li&gt;&lt;li&gt;Data Normalization&lt;/li&gt;&lt;li&gt;Data Enrichment&lt;/li&gt;&lt;/ul&gt;&lt;/div&gt;&lt;div&gt;&lt;b&gt;Data Model: &lt;/b&gt;None (as-is)&lt;/div&gt;&lt;/div&gt;" style="whiteSpace=wrap;html=1;aspect=fixed;fillColor=none;strokeColor=none;" parent="1" vertex="1">
          <mxGeometry x="470" y="319.5" width="200.5" height="200.5" as="geometry" />
        </mxCell>
        <mxCell id="fu8yQp-l4kPOa9yjXl17-51" value="&lt;div style=&quot;text-align: left;&quot;&gt;&lt;b style=&quot;background-color: transparent; color: light-dark(rgb(0, 0, 0), rgb(255, 255, 255));&quot;&gt;Object Type: &lt;/b&gt;&lt;span style=&quot;background-color: transparent; color: light-dark(rgb(0, 0, 0), rgb(255, 255, 255));&quot;&gt;Table&lt;/span&gt;&lt;/div&gt;&lt;div&gt;&lt;b&gt;&lt;br&gt;&lt;/b&gt;&lt;/div&gt;&lt;div style=&quot;text-align: left;&quot;&gt;&lt;b&gt;Load&lt;/b&gt;&lt;/div&gt;&lt;div&gt;&lt;ul&gt;&lt;li style=&quot;text-align: left;&quot;&gt;Batch Processing&lt;/li&gt;&lt;li style=&quot;text-align: left;&quot;&gt;Fulll Load&lt;/li&gt;&lt;li style=&quot;text-align: left;&quot;&gt;Truncate &amp;amp; Insert&lt;/li&gt;&lt;/ul&gt;&lt;div style=&quot;text-align: left;&quot;&gt;&lt;b&gt;Transformation:&lt;/b&gt;&lt;br&gt;&lt;ul style=&quot;&quot;&gt;&lt;li style=&quot;&quot;&gt;Data Integration&lt;/li&gt;&lt;li style=&quot;&quot;&gt;Aggregation&lt;/li&gt;&lt;li style=&quot;&quot;&gt;Business Logic&lt;/li&gt;&lt;/ul&gt;&lt;/div&gt;&lt;div&gt;&lt;b&gt;Data Model:&lt;/b&gt;&lt;/div&gt;&lt;/div&gt;&lt;div&gt;&lt;ul&gt;&lt;li style=&quot;text-align: left;&quot;&gt;Star Schema&lt;/li&gt;&lt;li style=&quot;text-align: left;&quot;&gt;Flat Table&lt;/li&gt;&lt;li style=&quot;text-align: left;&quot;&gt;Aggregated Table&lt;/li&gt;&lt;li style=&quot;text-align: left;&quot;&gt;Snowflake&lt;/li&gt;&lt;/ul&gt;&lt;/div&gt;" style="whiteSpace=wrap;html=1;aspect=fixed;fillColor=none;strokeColor=none;" parent="1" vertex="1">
          <mxGeometry x="700" y="360" width="170" height="170" as="geometry" />
        </mxCell>
        <mxCell id="fu8yQp-l4kPOa9yjXl17-52" value="" style="line;strokeWidth=1;rotatable=0;dashed=0;labelPosition=right;align=left;verticalAlign=middle;spacingTop=0;spacingLeft=6;points=[];portConstraint=eastwest;" parent="1" vertex="1">
          <mxGeometry x="550" y="295" width="60" height="10" as="geometry" />
        </mxCell>
        <mxCell id="fu8yQp-l4kPOa9yjXl17-57" value="" style="image;aspect=fixed;html=1;points=[];align=center;fontSize=12;image=img/lib/azure2/power_platform/PowerBI.svg;" parent="1" vertex="1">
          <mxGeometry x="954.5" y="197" width="51" height="68" as="geometry" />
        </mxCell>
        <mxCell id="fu8yQp-l4kPOa9yjXl17-58" value="" style="shape=image;imageAspect=0;aspect=fixed;verticalLabelPosition=bottom;verticalAlign=top;image=data:image/jpeg,/9j/4AAQSkZJRgABAQAAAQABAAD/2wCEAAkGBw8PEBAREhASFRUWDxUVEBAQFRoWEhAVGBYXFhcYFRcYHSggGBolGxUVITEhJSkrLi4uFx8zODMsNygtLisBCgoKDg0OGxAQGjElHyUvLS0tLS0tMC0tKy0tLy0tLS0vLS0tLS0tLS0tLS0tLS0tLS0vLS0tLS0tLS0tLS0tLf/AABEIAOAA4QMBEQACEQEDEQH/xAAcAAEAAQUBAQAAAAAAAAAAAAAABAECBQYHAwj/xABBEAACAQEDCAYGBwgDAQAAAAAAAQIDBAURBhIhMUFRYbEyM1NxctEHExUigZIUQnORsrPhNDVSYpOhwfAj4vGD/8QAGwEBAAIDAQEAAAAAAAAAAAAAAAQFAQIDBgf/xAA1EQEAAgECBAMGBQMEAwAAAAAAAQIDBBESITFRBTNBEyIyYXGxNHKR8PGBoeEUQlLRBhUj/9oADAMBAAIRAxEAPwDuIAAAAAAAAAAAAAAAAAAAAAAAAAAAAAAAAAAAAAAAAAAAAAAAAAAAAAAAAAAAAAAAAAAAAAAAAAAAAAAAAAAAAAAAAAAAAAAAAAAAAAAAAAAAAApiAxAtdaK1yXxZrNqx1ltFZn0WO1U/44/MjX2tP+UfqzwW7H0un2kPmQ9tj/5R+p7O/aVyrReqS+DNovWektZrMei/E2YVxAAAAFlWrGCcpSUUtbk8EviJnZiZ26o/tSz9vS+ePma8de7X2le57Us/b0vnj5jjr3OOvc9qWft6Xzx8xx17nHXue1LP29L54+Y469zjr3Paln7el88fMcde5x17ivOz9tS+deY469zjr3SkzZuqAAAAAAAAAtnNLS2klrbMTMRG8kRv0Yi2X/ThoinN8NEfvIGXxHHXlXmmY9Fe3xcmKr39XlqaiuCxf3sgX8Qy26ckumjxx15oVS2VZdKpJ/Fka2bJbraXeuKlekQ8XJvac3TaFDAAVxe8zubQ9adqqR6M5LubN65b16TLS2OlusJlG/K8dclLxL/JJpr81fXf6uFtHjn02ZSyZQwlonFxe9aY/oTcPiVLcrxtKJk0Vo51ndmadRSWKaa2NMsa2i0bwhzExylebMMJlp+wWjwx/HE5Z/glw1Hly5LgVqpAAAAB6Wde/DxrmZjqzXrDt9PUu4tYXcdFxlkAAAAAABbUmopt6ksWYmYrG8sxEzO0NOvS8pVpPThDHRH/ACzzup1Ns0/Jc4NPGOPmgEVIAAAAAAAAAACXd9vnRlinox96Ox/qSMGothtvHT1hxzYK5Y59W52eqpxjJamsUejpeL1i0eqltWaztLFZYU5SsVeMU23GOCisW/fjqRpmiZpOyPqI3xzs5b7OtHY1Pkl5FfwW7Kv2du39lfZto7Gp8kvIcFu39j2du39j2baOxqfJLyHBbt/Y9nbt/ZSV310m3RqJLW3F6P7Dgt2PZ27Ipq0etm6cPGuZmOrMdYduhqXcWsLyOi4yAAAAAAAIt6LGjV+zlyIutvwae9u0S64PMr9Wjnm4mJ5wvQyAAAAAAAAAAAEjcLhx9RBPZjzLvwvL7TTxb5zH91Nq/NlkiyRgAAAiXr1Fb7Gf4Wa3+GWmT4Z+jiqKpSvWzdOHjXMzHVmOsO3Q1LuLWF5HRcZAAAAAAAEa8OqqeB8iD4n+Ey/ll0w+ZDUKtHHgzwem1s4vdtzj7LyJR5Qa1ouMWfHk+GW2606gAAAAAAAOYuhBvUjlkzUxx70m6RSoJaX/AOFRqddN44acoazLabl6ld75nr/APwVfrP3U+q82U8ukcAAAIl69RW+xn+Fmt/hlpk+Gfo4qtncVSletm6cPGuZmOrMdYduhqXcWsLyOi4yAAAAAAAI94dVU8D5EHxL8Hl/LLph8yGqHzRdjG8ix0ovYSaavNXpLO6x2Zb2Sq+JX9Yg4lrsz3o6x4nX1rJup9He9G3/ssfaWeI+jvejP/ssfaTdX6M95pPidfSrG65WdbzlbxK89Ig4l8aUVsIt9Xmv1k3XkbdhUDY7l6ld75nvvAPwVfrP3VGq82U8u0cAAAIl69RW+xn+Fmt/hlpk+Gfo4qtncVSletm6cPGuZmOrMdYduhqXcWsLyOi4yAAAAAAAI94dVU8D5EDxP8Hl/LLph8yGqHzWV2GAAAAAAAAAAABkbJcvUrvfM994B+Cr9Z+6o1Xmynl2jgAABFvXqK32U/wALNb/DLTJ8M/RxiNCf8EtX8LKvaeyn4Z7PSz0J58Pcl0l9V7zMRO/Qis7xydqp6l3FpC7XmQAAAAAABHvDqqngfIgeJ/g8v5ZdMPmQ1Q+ayuwwAAAAAAAAAAAMjZLl6ld75nvvAPwVfrP3VGq82U8u0cAAAKNAUzRyFc0AkBUAAAAAAACPeHVVPA+RA8T/AAeX8sumHzIaofNZXYYAAAAAAKgUAqBQyKgbHcvUrvfM9/4B+Cr9Z+6p1Xmynl0jAAAAAAAAAAAAAAAACPeHVVPA+RA8T/B5fyy6YfMhqh81ldhgAAAAAA9KMM5pHfBjjJfhlredo3SVY1vZP/0FO8uPtZVjYU3gmzanhvHbhrMsTn2jml1LmSjim29q39xbZf8AxyK4t62971cK6yeLnHJDdjW9lPOgr3lI9tLNXXDNppcXzPYeD44x6WKx3n7q/UTvkmUwtHAAAAAAAAAAAAAAAAARrx6qp4HyIPiX4PL+WXTD5lfq1U+aSuwwAAAAAAe1k6S+PIl6PzY/fo55PhZGEW3gtZeY8dsluGvVFmYiN2Ts1nUFx2s9Lo9HXBXf17oWTJNpX07RCTkoyTcXhJJ6nxJ81mI5uMWieUPC2WXH3lr2reVGv0HH/wDTHHP7pOLLtyl6WDoLvfM7eG+RH1n7tc0+8klg5AAAAAAAAAAAAAAAACNePVVPBLkQfEvwmX8suuHzK/Vqp80ldBgAAAAAMiRYYOU0kt/IneH4rZM8VrHPm5ZrRFd5bHZrOoLjtZ7/AEmkrgr3n1lU5Mk2lgMo8oMzGlSfvapTWqPBcS40+m396yt1Gp292rXLnrVo1ouji5N9HZJbc7gTc1aTT3kPDa0WjhdGg3gsVpw0pbHtKWVzG/qvSEREdGVTIAY++L3oWSm6laaitS2yk90VtZ0xYb5bcNIcsuamKvFeXPLy9J1ZywoUYRjslVxlJ/BNJf3LfH4XSI9+d5+SoyeK3n4I/VseRF73jbE6teNKNH6jUGp1H/L72ri0Q9bhwYvdpM8X15JmjzZ8vvX24fpzbgiAsAAAAAAAAAAAjXj1VTwS5EHxL8Jl/LLrh8yv1aqfNJXQYAAAAGR6UaMpvNisWzvp9PfPeKY43mWl7xWN5bFYLEqUd72y8uB7/wAN8Npo6bdbT1lU5s05J+TB5SZQZuNGk9Oqc19XguJ6DT6bfa1lXqdTt7tWoayxVzoNwXTGz008MZtYylt7lwKjPmnJPyW+DDGOvzS7Xac3QtfIpddroxRwU+L7J2LFxc56PSxPGC+PM6+H2mcETPz+7XLG10gnOa2csFj94HCsr78lbbTOWL9XGTjRjsUVoxw3vWen0mnjDj29fV5fV6ic2SZ9PRkcgMm6dtqSnVnHMptY0sffqPQ1itkTjrtVOGu1es+vb/LtodLXNO9p5R+/0dio04xioxSSSSSWpJakjz0zM85ehiIiNoemIZUxAqAAAAAAAAAj3gv+Kp4HyIPiX4TJ+WXTD5lfq1U+aT1XahgAAAyPShRlOSjFYv8A3XwJGm02TUZIx443mf3u0yXikby2Ow2ONKO9vW959A8O8Ox6PHtX4p6yqM2ack83pbGvVzxeCzHjLdoLKnxQj324Zcwet7eJeKOVE8AOnWC1xrU4zi9DWng9qKS9JpbaV5jvF68UItsszi85atvA834hoppM5K84nr8k7Fl35Sl2Dq4/HmWnh34ev9fu45vjlJJzkgX439GtOGv6PVw78x4HTF5ld+8Oebf2dtu0vns9a8gl3XeNWzVY1aUnGSevY1ua2o55MdcleG3R0x5bY7cVers2SWVFK309Hu1Ypespv8Ud8X/Y85qtJbBPy9Jek0urrnr8/WEnKTKGhYaWfUeMnop010pv/C4mmn09s9tq/q31Gprhrvb9Gt+jy/LRba9rnVlozYZsV0YLGWCRM1+nphpWKoegz3zXtazfSsWgAAAAAAABbNYrDga2rFo2npI1u8LDKk21pjse7vPAeJ+FX0t5tEb079vlK2wZ4vG3qhlMkqAALoRxaWKWL1vUdMVOO8V32379GLTtG7ZrDY4044LS3re/9D6N4foMekxRFec+s9/8KbLlnJbeWkekjKirQbstJSg3FOdVrDGLWqD5v4HpfD9JW8e0t+n/AGpPENXan/zrG3z/AOml3JelonOFKVao6aUsIOTcdRZZcVIibRHNW4s17TFZnk2i7rvqWiWbBalpb0KK4kLJkrjjeU3HjtknaHred0VrNg5rFN4KUdK7uDNceamTo2yYbY+q65r1nZpYrTF9KG/j3mM2GMkbGHNOOfk36xWqFeCnB4pr7uD4lTfHNZmtlvS8WjihIjFJYI0rSKxtWOTeZ3VNmHlXwzXnYYZrzsdWGGnH4CN9+TE7bc3z3elGnCvWjTmpwVRqE1qksdB63FNppE2jaXkctaxeYrO8Ih0c0iw2ypQqRqU5OMovFSX+6UaXpW9eG0cm9MlqW4qzzel53jWtNSVWrJyk9uxLclsRjHirjrw1jk2yZbZLcVp5urejK55WeyupNYSqyzsHrUEvdx/uyh8RzRfJtHSF94dhnHj3nrLciAsAAAAAAAAABbKOJiYiY2kY+0XRTlpXuvhq+4o9V4BpsvOnuz8un6JNNVevXmgVbnqx1YS/3iUWb/x7VU+Da39kquspPVEqWOrHXCX3Y8ityeHarH1xz+m/2d65qT0l4uLWtMiTS1esOm8T0ZO7LyzcITejY/4f0PR+EeM+y2w5p930nt/hC1Gn4veq98obio2+lmTWnXTqLpQe9b1wPdabUzitFq84/tMKfUaeuavDb+HJaV0VrHbfVVVpzZOMvqzjg/eXA9B7auXFxVef9jbDl4bOi5EUqi9bLN9ySjhJ7WsdW9aWU+tmOUeq30MTG8+jZ7RQjUi4SScWsGmQq2ms7wnWrFo2loV+3NKzSxWLg+jLdwfEtcGeMkbeqqz4Jxzv6PG6L0nZp4x0xb9+G9eZtlwxkjaWuLLbHO/o6BYbbCtBTg8U/vT3Mqb0mk8Mral63jeHtUmkm20kli29SXE16tplyfLrLN2lys9nk1STanNa63d/LzL3RaKMcRe8c/sodbrpvPBTp92q3NdVa2VVSpRxb0t/Vit8nsRPzZq4q8VkHDhtltw1Z69vR/bqL9yKrR2Sp6H8Ysi4vEcN+vL6pWXw7NTpz+iBZ8jrxm8FZprjLBL78TrbW4I/3OVdFnn/AGtzyY9HSpSVW1OM2tMaMdME/wCZ7e4rdT4lxRw4/wBVlpvDeGeLJz+ToSRVLZUAAAAAAFMQADECoAABTACjgmazWJ6s7rXRjuX3Gk4cc/7Y/SDinuuUcDpERHKGES8bqo2hR9ZHHNeMXqlHfg+J1x5bU34Zc8mKuSPehKpU1FKMVgksElsNJned5bxERG0LzDLytFCNSLjJJxawae0zW01neGtqxaNpaFf1yys0sVi6bfuy/h4MtMGf2kbeqqz4Jx846I103nUs086OlPpQ2SXnxOmXFGSNpaYss453hLyqygdelOFPGMMx52PSk8NXcc9NpuC0Tbq6anU8dZivRzy5LnrWyqqVKOnRnSfRhHfIts2euGvFb+VThwWy24au2ZOXBRsNJU6axeupUfSm+PDgeb1Ge2a3Fb+HpdPp64a8NWWwODuYAVAAAAAAAAAcsyztdWNutCjUmknTwSk0l/xQ2JlfntPHPP8Aeyr1F7RkttP72hhfp1btanzy8zjxW7uHHbu6VkHUlKxxcpNv1ktMm29fEn6eZmnNZaWZnHzbGd0kAAAAAAAAAAAHja4QlCSnhm4POztWG0zWZid46tbRExz6OaW6NNVJqm24Y+63uLrHvwxxdVJfaLTw9EO19XPwPkdK9Yc7c6y3jIKnY1ZIOzNPFL1reHrHPDTn/wCOBWa6cs5Z9p/TtstNFGKMUez/AK92yohpoAAAAAAAAAAAOTZb/vC0d9P8qmVufzJ/foqdT5tv6faGDOTg6h6Pv2KP2k+ZP03wLTSeW2UkJIAAAAAAAAAAWzmkm28Eli29Q6sTOzR8or9dZunB4U09L7T9OBZ6fTxX3rdVZqNRNvdr0Yu7rBUtE1CC73sitrZ3yZK443lwx45yTtCZlPk/Kz0pzg3KHq3nPbF4beBy02p47RE8pdNTpppWZjo0LJ6/K1hqqpTejFespvo1FufHjsLXUaeuavDb+FXp9RbDbir/AC7bcN80bbRjVpPhKL6UHtTR5rNhthtw2elw565a8VWSOTsAAAAAAAAAAHJst/3haO+n+VTK3P5k/v0VOp8239PtDBnJwdQ9H37FH7SfMn6b4FppPLbKSEkAAAAAAAAAWzmkm28ElpbHyN9mj5RX66zdOm8Ke17ZvyLPT6eKe9bqq9RqOP3a9GMuy76lomoxW7Olsit53y5IxxvLhixzknaHQbsu6nZ4KMF4pPXJ8SoyZLZJ3lb48daRtCTUgmmmk01g09TRpEzE7w3mN42lyXLrIt2Vyr0E3RbbnDbR/wCvIvtFrvae5f4vv/lQ63Qzj9+nT7f4a5k/flaw1VUpPhOD6M1ufmTM+CuavDb+EPBqLYbcVXbLgvujbaSq0nwnF9KEtzPN58FsNuGz0uDPTNXiqyhxdgAAAAAAAABybLf94Wjvp/lUytz+ZP79FTqfNt/T7QwZycHUPR9+xR+0nzLDTfAtNJ5bZTukgACmIFQAAABZOaSbbwSWlvUhznoxMxHVpGUV+us3TpvCmnpfafoWen0/B71uqs1Go4/dr0Y26rtqWmajFYL60nqiv92HbLlrjjeXDFinJO0Og3bYIUIKEF3vbJ72VN8k3neVvjxxSNoSzR0ALKkFJNNJprBp6mtzG8xO8MTG7lGXWRbs7laLPFuk3jOmtdLit8eWJe6LXRf3MnXv3/yotbofZ+/SOXbt/hrNwX3WsNVVab8cH0ai3PzJubBTLTht/CDgz3w24q/y7Xk/flG20lUpvcpwfSpy3PzPN58F8NuGz0uDPXNXir/DKnF3AAAAAAAAOTZb/vC0d9P8qmVufzJ/foqdT5tv6faGDOTglWe8K9OObCrOK3Rk0jaLWjlEtovasbRL09sWrt6vzsz7S3dt7W/eT2xau3q/Ox7S3c9rfvJ7YtXb1fnY9pbue1v3lvHo9tVSrTrOpOUsJrDOeOGgl6a0zE7p2ktMxO8tvJKWAAAHhbLNGrCUJapJp4aGbVtNbRMNb1i0bS0NZO2pWn1LjjDDOjaF0c3itktOotP9Tj9nx78+379FV/pcntOH07/v1bzd9hp0IKEFgtr2ye9lZfJN53laY8cUjaEo0bgAABbOKeOK+G8MTDl2WWQk4z9bZIYwk0pUVrpyb1r+XV3dxdaTxCJjhyzz7/v1Uur8PmJ4sUcuza8isllYKblJ41Zpesafux25sd+GOsg6zVTnty6R0TtHpIwRvPWeraEQ00AAAAAAAA5Nlv8At9o/+f5VMrc/mT+/RU6nzbf0+0MGcnAAAAAHQPRp1dfxx5EzS9JWGi6S3UlpoAAAAKYAVAAAAAABQAkBUAAAAAAAABGq2ChNuUqVOTeuUoRbezS2jWa1nrDWaVnnMLfZdm7Cl/Tj5Dgr2Y9nTtB7Ls3YUv6cfIcFex7OnaD2XZuwpf04+Q4K9j2dO0HsuzdhS/px8hwV7Hs6doPZdm7Cl/Tj5Dgr2PZ07Q9aFlp08cyEY468yKjj9xmIiOjaKxHSHsZZAAAAAAAAAAAAAAAAAAAAAAAAAAAAAAAAAAAAAAAAAAAAAAAAAAAAAAAAf//Z;" parent="1" vertex="1">
          <mxGeometry x="205" y="75" width="44.2" height="44" as="geometry" />
        </mxCell>
      </root>
    </mxGraphModel>
  </diagram>
  <diagram id="TBOsHjA11ZgLiIBAQow5" name="Data Flow">
    <mxGraphModel dx="594" dy="675" grid="0" gridSize="10" guides="1" tooltips="1" connect="1" arrows="1" fold="1" page="1" pageScale="1" pageWidth="850" pageHeight="1100" math="0" shadow="0">
      <root>
        <mxCell id="0" />
        <mxCell id="1" parent="0" />
        <mxCell id="JW9RxsCec8w6b2ndq7v8-3" value="" style="rounded=0;whiteSpace=wrap;html=1;direction=south;strokeColor=light-dark(#C0C0C0,#C0C0C0);fillColor=none;" vertex="1" parent="1">
          <mxGeometry x="424.5" y="591" width="200" height="440" as="geometry" />
        </mxCell>
        <mxCell id="JW9RxsCec8w6b2ndq7v8-1" value="" style="rounded=0;whiteSpace=wrap;html=1;rotation=90;dashed=1;fillColor=none;strokeColor=default;" vertex="1" parent="1">
          <mxGeometry x="-196" y="750.5" width="520" height="119" as="geometry" />
        </mxCell>
        <mxCell id="JW9RxsCec8w6b2ndq7v8-2" value="" style="rounded=0;whiteSpace=wrap;html=1;direction=south;strokeColor=light-dark(#CD7F32,#C0C0C0);fillColor=none;" vertex="1" parent="1">
          <mxGeometry x="184.5" y="591" width="180" height="440" as="geometry" />
        </mxCell>
        <mxCell id="JW9RxsCec8w6b2ndq7v8-4" value="" style="rounded=0;whiteSpace=wrap;html=1;direction=south;strokeColor=light-dark(#FFD700,#FFD700);fillColor=none;" vertex="1" parent="1">
          <mxGeometry x="664.5" y="591" width="170" height="440" as="geometry" />
        </mxCell>
        <mxCell id="JW9RxsCec8w6b2ndq7v8-5" value="&lt;b&gt;Source&lt;/b&gt;" style="rounded=1;whiteSpace=wrap;html=1;" vertex="1" parent="1">
          <mxGeometry x="24.5" y="531" width="80" height="30" as="geometry" />
        </mxCell>
        <mxCell id="JW9RxsCec8w6b2ndq7v8-6" value="&lt;b&gt;&lt;font style=&quot;font-size: 20px;&quot;&gt;Data Flow&lt;/font&gt;&lt;/b&gt;" style="rounded=1;whiteSpace=wrap;html=1;" vertex="1" parent="1">
          <mxGeometry x="10.5" y="434" width="349.5" height="80" as="geometry" />
        </mxCell>
        <mxCell id="JW9RxsCec8w6b2ndq7v8-7" value="Bronze" style="rounded=1;whiteSpace=wrap;html=1;fontColor=light-dark(#000000,#000000);strokeColor=light-dark(#000000,#FFD966);fillColor=light-dark(#CD7F32,#CD7F32);labelBackgroundColor=none;labelBorderColor=none;" vertex="1" parent="1">
          <mxGeometry x="239.5" y="572" width="80" height="30" as="geometry" />
        </mxCell>
        <mxCell id="JW9RxsCec8w6b2ndq7v8-8" value="Silver" style="rounded=1;whiteSpace=wrap;html=1;fontColor=light-dark(#000000,#000000);strokeColor=light-dark(#000000,#CD7F32);fillColor=light-dark(#C0C0C0,#C0C0C0);labelBackgroundColor=none;labelBorderColor=none;opacity=50;" vertex="1" parent="1">
          <mxGeometry x="484.5" y="572" width="80" height="30" as="geometry" />
        </mxCell>
        <mxCell id="JW9RxsCec8w6b2ndq7v8-9" value="Gold" style="rounded=1;whiteSpace=wrap;html=1;fontColor=light-dark(#000000,#000000);strokeColor=light-dark(#000000,#FFD966);fillColor=light-dark(#FFD700,#FFD700);labelBackgroundColor=none;labelBorderColor=none;opacity=50;" vertex="1" parent="1">
          <mxGeometry x="704.5" y="571" width="80" height="30" as="geometry" />
        </mxCell>
        <mxCell id="JW9RxsCec8w6b2ndq7v8-10" style="edgeStyle=orthogonalEdgeStyle;rounded=0;orthogonalLoop=1;jettySize=auto;html=1;entryX=0;entryY=0.5;entryDx=0;entryDy=0;fontSize=12;startSize=8;endSize=8;" edge="1" parent="1" source="JW9RxsCec8w6b2ndq7v8-13" target="JW9RxsCec8w6b2ndq7v8-27">
          <mxGeometry relative="1" as="geometry" />
        </mxCell>
        <mxCell id="JW9RxsCec8w6b2ndq7v8-11" style="edgeStyle=orthogonalEdgeStyle;rounded=0;orthogonalLoop=1;jettySize=auto;html=1;fontSize=12;startSize=8;endSize=8;" edge="1" parent="1" target="JW9RxsCec8w6b2ndq7v8-23">
          <mxGeometry relative="1" as="geometry">
            <mxPoint x="71.06000000000006" y="710" as="sourcePoint" />
            <mxPoint x="207" y="667" as="targetPoint" />
            <Array as="points">
              <mxPoint x="140.5" y="710" />
              <mxPoint x="140.5" y="665" />
            </Array>
          </mxGeometry>
        </mxCell>
        <mxCell id="JW9RxsCec8w6b2ndq7v8-12" style="edgeStyle=orthogonalEdgeStyle;rounded=0;orthogonalLoop=1;jettySize=auto;html=1;fontSize=12;startSize=8;endSize=8;" edge="1" parent="1" source="JW9RxsCec8w6b2ndq7v8-13" target="JW9RxsCec8w6b2ndq7v8-33">
          <mxGeometry relative="1" as="geometry">
            <mxPoint x="210.5" y="743.9999999999998" as="targetPoint" />
            <Array as="points">
              <mxPoint x="140.5" y="709" />
              <mxPoint x="140.5" y="754" />
            </Array>
          </mxGeometry>
        </mxCell>
        <mxCell id="JW9RxsCec8w6b2ndq7v8-13" value="" style="image;aspect=fixed;html=1;points=[];align=center;fontSize=12;image=img/lib/azure2/general/Folder_Blank.svg;" vertex="1" parent="1">
          <mxGeometry x="37.60000000000002" y="694" width="36.96" height="30" as="geometry" />
        </mxCell>
        <mxCell id="JW9RxsCec8w6b2ndq7v8-14" value="" style="image;aspect=fixed;html=1;points=[];align=center;fontSize=12;image=img/lib/azure2/general/File.svg;" vertex="1" parent="1">
          <mxGeometry x="63.92999999999995" y="710" width="16.23" height="20" as="geometry" />
        </mxCell>
        <mxCell id="JW9RxsCec8w6b2ndq7v8-15" value="CRM" style="rounded=0;whiteSpace=wrap;html=1;fillColor=none;strokeColor=none;" vertex="1" parent="1">
          <mxGeometry x="32.710000000000036" y="730" width="50" height="30" as="geometry" />
        </mxCell>
        <mxCell id="JW9RxsCec8w6b2ndq7v8-16" style="edgeStyle=none;curved=1;rounded=0;orthogonalLoop=1;jettySize=auto;html=1;fontSize=12;startSize=8;endSize=8;" edge="1" parent="1" source="JW9RxsCec8w6b2ndq7v8-19" target="JW9RxsCec8w6b2ndq7v8-29">
          <mxGeometry relative="1" as="geometry">
            <Array as="points">
              <mxPoint x="170.5" y="884" />
            </Array>
          </mxGeometry>
        </mxCell>
        <mxCell id="JW9RxsCec8w6b2ndq7v8-17" style="edgeStyle=orthogonalEdgeStyle;rounded=0;orthogonalLoop=1;jettySize=auto;html=1;entryX=0;entryY=0.5;entryDx=0;entryDy=0;fontSize=12;startSize=8;endSize=8;" edge="1" parent="1" source="JW9RxsCec8w6b2ndq7v8-19" target="JW9RxsCec8w6b2ndq7v8-25">
          <mxGeometry relative="1" as="geometry" />
        </mxCell>
        <mxCell id="JW9RxsCec8w6b2ndq7v8-18" style="edgeStyle=orthogonalEdgeStyle;rounded=0;orthogonalLoop=1;jettySize=auto;html=1;entryX=0;entryY=0.5;entryDx=0;entryDy=0;fontSize=12;startSize=8;endSize=8;" edge="1" parent="1" source="JW9RxsCec8w6b2ndq7v8-19" target="JW9RxsCec8w6b2ndq7v8-31">
          <mxGeometry relative="1" as="geometry" />
        </mxCell>
        <mxCell id="JW9RxsCec8w6b2ndq7v8-19" value="" style="image;aspect=fixed;html=1;points=[];align=center;fontSize=12;image=img/lib/azure2/general/Folder_Blank.svg;" vertex="1" parent="1">
          <mxGeometry x="46.98000000000002" y="867" width="35.73" height="29" as="geometry" />
        </mxCell>
        <mxCell id="JW9RxsCec8w6b2ndq7v8-20" value="" style="image;aspect=fixed;html=1;points=[];align=center;fontSize=12;image=img/lib/azure2/general/File.svg;" vertex="1" parent="1">
          <mxGeometry x="71.05999999999995" y="888.5" width="16.23" height="20" as="geometry" />
        </mxCell>
        <mxCell id="JW9RxsCec8w6b2ndq7v8-21" value="ERP" style="rounded=0;whiteSpace=wrap;html=1;fillColor=none;strokeColor=none;" vertex="1" parent="1">
          <mxGeometry x="39.84000000000003" y="908.5" width="50" height="30" as="geometry" />
        </mxCell>
        <mxCell id="JW9RxsCec8w6b2ndq7v8-22" style="edgeStyle=none;curved=1;rounded=0;orthogonalLoop=1;jettySize=auto;html=1;entryX=0;entryY=0.5;entryDx=0;entryDy=0;fontSize=12;startSize=8;endSize=8;" edge="1" parent="1" source="JW9RxsCec8w6b2ndq7v8-23" target="JW9RxsCec8w6b2ndq7v8-36">
          <mxGeometry relative="1" as="geometry" />
        </mxCell>
        <mxCell id="JW9RxsCec8w6b2ndq7v8-23" value="crm_sales _details" style="rounded=1;whiteSpace=wrap;html=1;fillColor=light-dark(#c38c50, #ededed);opacity=50;" vertex="1" parent="1">
          <mxGeometry x="210.5" y="654" width="120" height="24" as="geometry" />
        </mxCell>
        <mxCell id="JW9RxsCec8w6b2ndq7v8-24" style="edgeStyle=none;curved=1;rounded=0;orthogonalLoop=1;jettySize=auto;html=1;fontSize=12;startSize=8;endSize=8;" edge="1" parent="1" source="JW9RxsCec8w6b2ndq7v8-25" target="JW9RxsCec8w6b2ndq7v8-37">
          <mxGeometry relative="1" as="geometry" />
        </mxCell>
        <mxCell id="JW9RxsCec8w6b2ndq7v8-25" value="erp_cust_az12" style="rounded=1;whiteSpace=wrap;html=1;fillColor=light-dark(#c38c50, #ededed);opacity=50;" vertex="1" parent="1">
          <mxGeometry x="210.5" y="814" width="120" height="24" as="geometry" />
        </mxCell>
        <mxCell id="JW9RxsCec8w6b2ndq7v8-26" style="edgeStyle=none;curved=1;rounded=0;orthogonalLoop=1;jettySize=auto;html=1;fontSize=12;startSize=8;endSize=8;" edge="1" parent="1" source="JW9RxsCec8w6b2ndq7v8-27" target="JW9RxsCec8w6b2ndq7v8-38">
          <mxGeometry relative="1" as="geometry" />
        </mxCell>
        <mxCell id="JW9RxsCec8w6b2ndq7v8-27" value="crm_cust_info" style="rounded=1;whiteSpace=wrap;html=1;fillColor=light-dark(#c38c50, #ededed);opacity=50;" vertex="1" parent="1">
          <mxGeometry x="210.5" y="698" width="120" height="24" as="geometry" />
        </mxCell>
        <mxCell id="JW9RxsCec8w6b2ndq7v8-28" style="edgeStyle=none;curved=1;rounded=0;orthogonalLoop=1;jettySize=auto;html=1;fontSize=12;startSize=8;endSize=8;" edge="1" parent="1" source="JW9RxsCec8w6b2ndq7v8-29" target="JW9RxsCec8w6b2ndq7v8-39">
          <mxGeometry relative="1" as="geometry" />
        </mxCell>
        <mxCell id="JW9RxsCec8w6b2ndq7v8-29" value="erp_loc_a101" style="rounded=1;whiteSpace=wrap;html=1;fillColor=light-dark(#c38c50, #ededed);opacity=50;" vertex="1" parent="1">
          <mxGeometry x="210.5" y="867" width="120" height="24" as="geometry" />
        </mxCell>
        <mxCell id="JW9RxsCec8w6b2ndq7v8-30" style="edgeStyle=none;curved=1;rounded=0;orthogonalLoop=1;jettySize=auto;html=1;fontSize=12;startSize=8;endSize=8;" edge="1" parent="1" source="JW9RxsCec8w6b2ndq7v8-31" target="JW9RxsCec8w6b2ndq7v8-40">
          <mxGeometry relative="1" as="geometry" />
        </mxCell>
        <mxCell id="JW9RxsCec8w6b2ndq7v8-31" value="erp_px_cat_g1v2" style="rounded=1;whiteSpace=wrap;html=1;fillColor=light-dark(#c38c50, #ededed);opacity=50;" vertex="1" parent="1">
          <mxGeometry x="210.5" y="934" width="120" height="24" as="geometry" />
        </mxCell>
        <mxCell id="JW9RxsCec8w6b2ndq7v8-32" style="edgeStyle=none;curved=1;rounded=0;orthogonalLoop=1;jettySize=auto;html=1;fontSize=12;startSize=8;endSize=8;" edge="1" parent="1" source="JW9RxsCec8w6b2ndq7v8-33">
          <mxGeometry relative="1" as="geometry">
            <mxPoint x="470.5" y="752" as="targetPoint" />
          </mxGeometry>
        </mxCell>
        <mxCell id="JW9RxsCec8w6b2ndq7v8-33" value="crm_prd_info" style="rounded=1;whiteSpace=wrap;html=1;fillColor=light-dark(#c38c50, #ededed);opacity=50;" vertex="1" parent="1">
          <mxGeometry x="210.5" y="740" width="120" height="24" as="geometry" />
        </mxCell>
        <mxCell id="JW9RxsCec8w6b2ndq7v8-34" style="edgeStyle=none;curved=1;rounded=0;orthogonalLoop=1;jettySize=auto;html=1;entryX=0.083;entryY=0.75;entryDx=0;entryDy=0;entryPerimeter=0;fontSize=12;startSize=8;endSize=8;strokeColor=none;" edge="1" parent="1" source="JW9RxsCec8w6b2ndq7v8-13" target="JW9RxsCec8w6b2ndq7v8-33">
          <mxGeometry relative="1" as="geometry" />
        </mxCell>
        <mxCell id="JW9RxsCec8w6b2ndq7v8-35" style="edgeStyle=none;curved=1;rounded=0;orthogonalLoop=1;jettySize=auto;html=1;exitX=0;exitY=0.25;exitDx=0;exitDy=0;fontSize=12;startSize=8;endSize=8;" edge="1" parent="1" source="JW9RxsCec8w6b2ndq7v8-23" target="JW9RxsCec8w6b2ndq7v8-23">
          <mxGeometry relative="1" as="geometry" />
        </mxCell>
        <mxCell id="y2Nswf1_-MFxLDnumJbw-5" style="edgeStyle=orthogonalEdgeStyle;rounded=0;orthogonalLoop=1;jettySize=auto;html=1;entryX=0;entryY=0.5;entryDx=0;entryDy=0;" edge="1" parent="1" source="JW9RxsCec8w6b2ndq7v8-36" target="y2Nswf1_-MFxLDnumJbw-2">
          <mxGeometry relative="1" as="geometry" />
        </mxCell>
        <mxCell id="JW9RxsCec8w6b2ndq7v8-36" value="crm_sales _details" style="rounded=1;whiteSpace=wrap;html=1;fillColor=light-dark(#C0C0C0,#EDEDED);opacity=50;gradientColor=none;" vertex="1" parent="1">
          <mxGeometry x="470.5" y="654" width="120" height="24" as="geometry" />
        </mxCell>
        <mxCell id="y2Nswf1_-MFxLDnumJbw-11" style="rounded=0;orthogonalLoop=1;jettySize=auto;html=1;entryX=0;entryY=0.5;entryDx=0;entryDy=0;exitX=1;exitY=0.5;exitDx=0;exitDy=0;" edge="1" parent="1" source="JW9RxsCec8w6b2ndq7v8-37" target="y2Nswf1_-MFxLDnumJbw-3">
          <mxGeometry relative="1" as="geometry" />
        </mxCell>
        <mxCell id="JW9RxsCec8w6b2ndq7v8-37" value="erp_cust_az12" style="rounded=1;whiteSpace=wrap;html=1;fillColor=light-dark(#C0C0C0,#EDEDED);opacity=50;" vertex="1" parent="1">
          <mxGeometry x="470.5" y="814" width="120" height="24" as="geometry" />
        </mxCell>
        <mxCell id="y2Nswf1_-MFxLDnumJbw-6" style="rounded=0;orthogonalLoop=1;jettySize=auto;html=1;entryX=0;entryY=0.5;entryDx=0;entryDy=0;jumpStyle=gap;exitX=1;exitY=0.5;exitDx=0;exitDy=0;" edge="1" parent="1" source="JW9RxsCec8w6b2ndq7v8-38" target="y2Nswf1_-MFxLDnumJbw-3">
          <mxGeometry relative="1" as="geometry" />
        </mxCell>
        <mxCell id="JW9RxsCec8w6b2ndq7v8-38" value="crm_cust_info" style="rounded=1;whiteSpace=wrap;html=1;fillColor=#C0C0C0;opacity=50;" vertex="1" parent="1">
          <mxGeometry x="470.5" y="698" width="120" height="24" as="geometry" />
        </mxCell>
        <mxCell id="y2Nswf1_-MFxLDnumJbw-9" style="rounded=0;orthogonalLoop=1;jettySize=auto;html=1;jumpStyle=gap;exitX=1;exitY=0.5;exitDx=0;exitDy=0;entryX=0;entryY=0.5;entryDx=0;entryDy=0;" edge="1" parent="1" source="JW9RxsCec8w6b2ndq7v8-39" target="y2Nswf1_-MFxLDnumJbw-3">
          <mxGeometry relative="1" as="geometry">
            <mxPoint x="684.2608695652175" y="755.4347826086957" as="targetPoint" />
          </mxGeometry>
        </mxCell>
        <mxCell id="JW9RxsCec8w6b2ndq7v8-39" value="erp_loc_a101" style="rounded=1;whiteSpace=wrap;html=1;fillColor=light-dark(#C0C0C0,#EDEDED);opacity=50;" vertex="1" parent="1">
          <mxGeometry x="470.5" y="867" width="120" height="24" as="geometry" />
        </mxCell>
        <mxCell id="y2Nswf1_-MFxLDnumJbw-10" style="rounded=0;orthogonalLoop=1;jettySize=auto;html=1;entryX=0;entryY=0.5;entryDx=0;entryDy=0;jumpStyle=gap;exitX=1;exitY=0.5;exitDx=0;exitDy=0;" edge="1" parent="1" source="JW9RxsCec8w6b2ndq7v8-40" target="y2Nswf1_-MFxLDnumJbw-4">
          <mxGeometry relative="1" as="geometry" />
        </mxCell>
        <mxCell id="JW9RxsCec8w6b2ndq7v8-40" value="erp_px_cat_g1v2" style="rounded=1;whiteSpace=wrap;html=1;fillColor=light-dark(#C0C0C0,#EDEDED);opacity=50;" vertex="1" parent="1">
          <mxGeometry x="470.5" y="934" width="120" height="24" as="geometry" />
        </mxCell>
        <mxCell id="y2Nswf1_-MFxLDnumJbw-7" style="rounded=0;orthogonalLoop=1;jettySize=auto;html=1;entryX=0;entryY=0.5;entryDx=0;entryDy=0;jumpStyle=gap;exitX=1;exitY=0.5;exitDx=0;exitDy=0;" edge="1" parent="1" source="JW9RxsCec8w6b2ndq7v8-41" target="y2Nswf1_-MFxLDnumJbw-4">
          <mxGeometry relative="1" as="geometry" />
        </mxCell>
        <mxCell id="JW9RxsCec8w6b2ndq7v8-41" value="crm_prd_info" style="rounded=1;whiteSpace=wrap;html=1;fillColor=light-dark(#C0C0C0,#EDEDED);opacity=50;" vertex="1" parent="1">
          <mxGeometry x="470.5" y="740" width="120" height="24" as="geometry" />
        </mxCell>
        <mxCell id="y2Nswf1_-MFxLDnumJbw-2" value="fact_sales" style="rounded=1;whiteSpace=wrap;html=1;fillColor=#fff2cc;opacity=50;gradientColor=#ffd966;strokeColor=#d6b656;" vertex="1" parent="1">
          <mxGeometry x="693" y="654" width="120" height="24" as="geometry" />
        </mxCell>
        <mxCell id="y2Nswf1_-MFxLDnumJbw-3" value="dim_customers" style="rounded=1;whiteSpace=wrap;html=1;fillColor=#fff2cc;opacity=50;gradientColor=#ffd966;strokeColor=#d6b656;" vertex="1" parent="1">
          <mxGeometry x="693" y="772" width="120" height="24" as="geometry" />
        </mxCell>
        <mxCell id="y2Nswf1_-MFxLDnumJbw-4" value="dim_products" style="rounded=1;whiteSpace=wrap;html=1;fillColor=#fff2cc;opacity=50;gradientColor=#ffd966;strokeColor=#d6b656;" vertex="1" parent="1">
          <mxGeometry x="693" y="855" width="120" height="24" as="geometry" />
        </mxCell>
      </root>
    </mxGraphModel>
  </diagram>
  <diagram id="eROB-37ujoGJI2f-TUV8" name="Integration Model">
    <mxGraphModel dx="663" dy="1109" grid="0" gridSize="10" guides="1" tooltips="1" connect="1" arrows="1" fold="1" page="1" pageScale="1" pageWidth="850" pageHeight="1100" math="0" shadow="0">
      <root>
        <mxCell id="0" />
        <mxCell id="1" parent="0" />
        <mxCell id="HlwpSCEORS0UcnoR01fM-46" value="" style="rounded=0;whiteSpace=wrap;html=1;fillColor=none;dashed=1;" vertex="1" parent="1">
          <mxGeometry x="547" y="333" width="279" height="377" as="geometry" />
        </mxCell>
        <mxCell id="HlwpSCEORS0UcnoR01fM-1" value="crm_sales_details" style="swimlane;fontStyle=0;childLayout=stackLayout;horizontal=1;startSize=30;horizontalStack=0;resizeParent=1;resizeParentMax=0;resizeLast=0;collapsible=1;marginBottom=0;whiteSpace=wrap;html=1;swimlaneFillColor=none;glass=0;fillColor=#99CCFF;" vertex="1" parent="1">
          <mxGeometry x="58" y="435" width="140" height="120" as="geometry">
            <mxRectangle x="84" y="207" width="131" height="30" as="alternateBounds" />
          </mxGeometry>
        </mxCell>
        <mxCell id="HlwpSCEORS0UcnoR01fM-2" value="prd_key" style="text;strokeColor=none;fillColor=none;align=left;verticalAlign=middle;spacingLeft=4;spacingRight=4;overflow=hidden;points=[[0,0.5],[1,0.5]];portConstraint=eastwest;rotatable=0;whiteSpace=wrap;html=1;" vertex="1" parent="HlwpSCEORS0UcnoR01fM-1">
          <mxGeometry y="30" width="140" height="30" as="geometry" />
        </mxCell>
        <mxCell id="HlwpSCEORS0UcnoR01fM-3" value="cst_id&lt;span style=&quot;white-space: pre;&quot;&gt;&#x9;&lt;/span&gt;" style="text;strokeColor=none;fillColor=none;align=left;verticalAlign=middle;spacingLeft=4;spacingRight=4;overflow=hidden;points=[[0,0.5],[1,0.5]];portConstraint=eastwest;rotatable=0;whiteSpace=wrap;html=1;" vertex="1" parent="HlwpSCEORS0UcnoR01fM-1">
          <mxGeometry y="60" width="140" height="30" as="geometry" />
        </mxCell>
        <mxCell id="HlwpSCEORS0UcnoR01fM-5" value="SALES" style="text;strokeColor=none;fillColor=#CCCCFF;align=center;verticalAlign=middle;spacingLeft=4;spacingRight=4;overflow=hidden;points=[[0,0.5],[1,0.5]];portConstraint=eastwest;rotatable=0;whiteSpace=wrap;html=1;" vertex="1" parent="HlwpSCEORS0UcnoR01fM-1">
          <mxGeometry y="90" width="140" height="30" as="geometry" />
        </mxCell>
        <mxCell id="HlwpSCEORS0UcnoR01fM-6" value="crm_cust_info" style="swimlane;fontStyle=0;childLayout=stackLayout;horizontal=1;startSize=30;horizontalStack=0;resizeParent=1;resizeParentMax=0;resizeLast=0;collapsible=1;marginBottom=0;whiteSpace=wrap;html=1;swimlaneFillColor=none;glass=0;fillColor=#99CCFF;" vertex="1" parent="1">
          <mxGeometry x="276" y="561" width="159" height="120" as="geometry">
            <mxRectangle x="84" y="207" width="131" height="30" as="alternateBounds" />
          </mxGeometry>
        </mxCell>
        <mxCell id="HlwpSCEORS0UcnoR01fM-7" value="cst_id" style="text;strokeColor=none;fillColor=none;align=left;verticalAlign=middle;spacingLeft=4;spacingRight=4;overflow=hidden;points=[[0,0.5],[1,0.5]];portConstraint=eastwest;rotatable=0;whiteSpace=wrap;html=1;" vertex="1" parent="HlwpSCEORS0UcnoR01fM-6">
          <mxGeometry y="30" width="159" height="30" as="geometry" />
        </mxCell>
        <mxCell id="HlwpSCEORS0UcnoR01fM-8" value="cst_key" style="text;strokeColor=none;fillColor=none;align=left;verticalAlign=middle;spacingLeft=4;spacingRight=4;overflow=hidden;points=[[0,0.5],[1,0.5]];portConstraint=eastwest;rotatable=0;whiteSpace=wrap;html=1;" vertex="1" parent="HlwpSCEORS0UcnoR01fM-6">
          <mxGeometry y="60" width="159" height="30" as="geometry" />
        </mxCell>
        <mxCell id="HlwpSCEORS0UcnoR01fM-9" value="CUSTOMER" style="text;strokeColor=none;fillColor=#E6FFCC;align=center;verticalAlign=middle;spacingLeft=4;spacingRight=4;overflow=hidden;points=[[0,0.5],[1,0.5]];portConstraint=eastwest;rotatable=0;whiteSpace=wrap;html=1;" vertex="1" parent="HlwpSCEORS0UcnoR01fM-6">
          <mxGeometry y="90" width="159" height="30" as="geometry" />
        </mxCell>
        <mxCell id="HlwpSCEORS0UcnoR01fM-10" value="crm_prd_info" style="swimlane;fontStyle=0;childLayout=stackLayout;horizontal=1;startSize=30;horizontalStack=0;resizeParent=1;resizeParentMax=0;resizeLast=0;collapsible=1;marginBottom=0;whiteSpace=wrap;html=1;swimlaneFillColor=none;glass=0;fillColor=#99CCFF;" vertex="1" parent="1">
          <mxGeometry x="265" y="351" width="160" height="90" as="geometry">
            <mxRectangle x="84" y="207" width="131" height="30" as="alternateBounds" />
          </mxGeometry>
        </mxCell>
        <mxCell id="HlwpSCEORS0UcnoR01fM-11" value="prd_key" style="text;strokeColor=none;fillColor=none;align=left;verticalAlign=middle;spacingLeft=4;spacingRight=4;overflow=hidden;points=[[0,0.5],[1,0.5]];portConstraint=eastwest;rotatable=0;whiteSpace=wrap;html=1;" vertex="1" parent="HlwpSCEORS0UcnoR01fM-10">
          <mxGeometry y="30" width="160" height="30" as="geometry" />
        </mxCell>
        <mxCell id="HlwpSCEORS0UcnoR01fM-13" value="PRODUCT" style="text;strokeColor=none;fillColor=#FFCCFF;align=center;verticalAlign=middle;spacingLeft=4;spacingRight=4;overflow=hidden;points=[[0,0.5],[1,0.5]];portConstraint=eastwest;rotatable=0;whiteSpace=wrap;html=1;" vertex="1" parent="HlwpSCEORS0UcnoR01fM-10">
          <mxGeometry y="60" width="160" height="30" as="geometry" />
        </mxCell>
        <mxCell id="HlwpSCEORS0UcnoR01fM-14" style="edgeStyle=orthogonalEdgeStyle;rounded=0;orthogonalLoop=1;jettySize=auto;html=1;entryX=0;entryY=0.5;entryDx=0;entryDy=0;" edge="1" parent="1" source="HlwpSCEORS0UcnoR01fM-2" target="HlwpSCEORS0UcnoR01fM-11">
          <mxGeometry relative="1" as="geometry" />
        </mxCell>
        <mxCell id="HlwpSCEORS0UcnoR01fM-15" style="edgeStyle=orthogonalEdgeStyle;rounded=0;orthogonalLoop=1;jettySize=auto;html=1;entryX=0;entryY=0.5;entryDx=0;entryDy=0;" edge="1" parent="1" source="HlwpSCEORS0UcnoR01fM-3" target="HlwpSCEORS0UcnoR01fM-7">
          <mxGeometry relative="1" as="geometry" />
        </mxCell>
        <mxCell id="HlwpSCEORS0UcnoR01fM-24" value="erp_cust_az12" style="swimlane;fontStyle=0;childLayout=stackLayout;horizontal=1;startSize=30;horizontalStack=0;resizeParent=1;resizeParentMax=0;resizeLast=0;collapsible=1;marginBottom=0;whiteSpace=wrap;html=1;swimlaneFillColor=none;glass=0;fillColor=#fff2cc;gradientColor=#ffd966;strokeColor=#d6b656;" vertex="1" parent="1">
          <mxGeometry x="631" y="497" width="159" height="90" as="geometry">
            <mxRectangle x="84" y="207" width="131" height="30" as="alternateBounds" />
          </mxGeometry>
        </mxCell>
        <mxCell id="HlwpSCEORS0UcnoR01fM-25" value="cid" style="text;strokeColor=none;fillColor=none;align=left;verticalAlign=middle;spacingLeft=4;spacingRight=4;overflow=hidden;points=[[0,0.5],[1,0.5]];portConstraint=eastwest;rotatable=0;whiteSpace=wrap;html=1;" vertex="1" parent="HlwpSCEORS0UcnoR01fM-24">
          <mxGeometry y="30" width="159" height="30" as="geometry" />
        </mxCell>
        <mxCell id="HlwpSCEORS0UcnoR01fM-27" value="CUSTOMER" style="text;strokeColor=none;fillColor=#E6FFCC;align=center;verticalAlign=middle;spacingLeft=4;spacingRight=4;overflow=hidden;points=[[0,0.5],[1,0.5]];portConstraint=eastwest;rotatable=0;whiteSpace=wrap;html=1;" vertex="1" parent="HlwpSCEORS0UcnoR01fM-24">
          <mxGeometry y="60" width="159" height="30" as="geometry" />
        </mxCell>
        <mxCell id="HlwpSCEORS0UcnoR01fM-28" value="erp_px_cat_g1v2" style="swimlane;fontStyle=0;childLayout=stackLayout;horizontal=1;startSize=30;horizontalStack=0;resizeParent=1;resizeParentMax=0;resizeLast=0;collapsible=1;marginBottom=0;whiteSpace=wrap;html=1;swimlaneFillColor=none;glass=0;fillColor=#fff2cc;gradientColor=#ffd966;strokeColor=#d6b656;" vertex="1" parent="1">
          <mxGeometry x="630" y="351" width="160" height="90" as="geometry">
            <mxRectangle x="84" y="207" width="131" height="30" as="alternateBounds" />
          </mxGeometry>
        </mxCell>
        <mxCell id="HlwpSCEORS0UcnoR01fM-29" value="id" style="text;strokeColor=none;fillColor=none;align=left;verticalAlign=middle;spacingLeft=4;spacingRight=4;overflow=hidden;points=[[0,0.5],[1,0.5]];portConstraint=eastwest;rotatable=0;whiteSpace=wrap;html=1;" vertex="1" parent="HlwpSCEORS0UcnoR01fM-28">
          <mxGeometry y="30" width="160" height="30" as="geometry" />
        </mxCell>
        <mxCell id="HlwpSCEORS0UcnoR01fM-30" value="PRODUCT" style="text;strokeColor=none;fillColor=#FFCCFF;align=center;verticalAlign=middle;spacingLeft=4;spacingRight=4;overflow=hidden;points=[[0,0.5],[1,0.5]];portConstraint=eastwest;rotatable=0;whiteSpace=wrap;html=1;" vertex="1" parent="HlwpSCEORS0UcnoR01fM-28">
          <mxGeometry y="60" width="160" height="30" as="geometry" />
        </mxCell>
        <mxCell id="HlwpSCEORS0UcnoR01fM-33" value="erp_loc_a101" style="swimlane;fontStyle=0;childLayout=stackLayout;horizontal=1;startSize=30;horizontalStack=0;resizeParent=1;resizeParentMax=0;resizeLast=0;collapsible=1;marginBottom=0;whiteSpace=wrap;html=1;swimlaneFillColor=none;glass=0;fillColor=#fff2cc;gradientColor=#ffd966;strokeColor=#d6b656;" vertex="1" parent="1">
          <mxGeometry x="631" y="611" width="159" height="90" as="geometry">
            <mxRectangle x="84" y="207" width="131" height="30" as="alternateBounds" />
          </mxGeometry>
        </mxCell>
        <mxCell id="HlwpSCEORS0UcnoR01fM-34" value="cst_id" style="text;strokeColor=none;fillColor=none;align=left;verticalAlign=middle;spacingLeft=4;spacingRight=4;overflow=hidden;points=[[0,0.5],[1,0.5]];portConstraint=eastwest;rotatable=0;whiteSpace=wrap;html=1;" vertex="1" parent="HlwpSCEORS0UcnoR01fM-33">
          <mxGeometry y="30" width="159" height="30" as="geometry" />
        </mxCell>
        <mxCell id="HlwpSCEORS0UcnoR01fM-36" value="CUSTOMER" style="text;strokeColor=none;fillColor=#E6FFCC;align=center;verticalAlign=middle;spacingLeft=4;spacingRight=4;overflow=hidden;points=[[0,0.5],[1,0.5]];portConstraint=eastwest;rotatable=0;whiteSpace=wrap;html=1;" vertex="1" parent="HlwpSCEORS0UcnoR01fM-33">
          <mxGeometry y="60" width="159" height="30" as="geometry" />
        </mxCell>
        <mxCell id="HlwpSCEORS0UcnoR01fM-37" style="edgeStyle=orthogonalEdgeStyle;rounded=0;orthogonalLoop=1;jettySize=auto;html=1;" edge="1" parent="1" source="HlwpSCEORS0UcnoR01fM-11" target="HlwpSCEORS0UcnoR01fM-29">
          <mxGeometry relative="1" as="geometry" />
        </mxCell>
        <mxCell id="HlwpSCEORS0UcnoR01fM-39" style="edgeStyle=orthogonalEdgeStyle;rounded=0;orthogonalLoop=1;jettySize=auto;html=1;" edge="1" parent="1" source="HlwpSCEORS0UcnoR01fM-7" target="HlwpSCEORS0UcnoR01fM-25">
          <mxGeometry relative="1" as="geometry" />
        </mxCell>
        <mxCell id="HlwpSCEORS0UcnoR01fM-40" style="edgeStyle=orthogonalEdgeStyle;rounded=0;orthogonalLoop=1;jettySize=auto;html=1;entryX=0;entryY=0.5;entryDx=0;entryDy=0;" edge="1" parent="1" source="HlwpSCEORS0UcnoR01fM-7" target="HlwpSCEORS0UcnoR01fM-34">
          <mxGeometry relative="1" as="geometry" />
        </mxCell>
        <mxCell id="HlwpSCEORS0UcnoR01fM-41" value="" style="rounded=0;whiteSpace=wrap;html=1;fillColor=none;dashed=1;" vertex="1" parent="1">
          <mxGeometry x="33" y="333" width="460" height="377" as="geometry" />
        </mxCell>
        <mxCell id="HlwpSCEORS0UcnoR01fM-47" value="&lt;font style=&quot;font-size: 20px;&quot;&gt;&lt;b&gt;CRM&lt;/b&gt;&lt;/font&gt;" style="rounded=1;whiteSpace=wrap;html=1;" vertex="1" parent="1">
          <mxGeometry x="97" y="298" width="120" height="60" as="geometry" />
        </mxCell>
        <mxCell id="HlwpSCEORS0UcnoR01fM-48" value="&lt;span style=&quot;font-size: 20px;&quot;&gt;&lt;b&gt;ERP&lt;/b&gt;&lt;/span&gt;" style="rounded=1;whiteSpace=wrap;html=1;" vertex="1" parent="1">
          <mxGeometry x="547" y="286" width="120" height="60" as="geometry" />
        </mxCell>
        <mxCell id="HlwpSCEORS0UcnoR01fM-49" value="Enterprise Resource Planning" style="text;html=1;align=center;verticalAlign=middle;resizable=0;points=[];autosize=1;strokeColor=none;fillColor=none;" vertex="1" parent="1">
          <mxGeometry x="547" y="251" width="177" height="26" as="geometry" />
        </mxCell>
        <mxCell id="HlwpSCEORS0UcnoR01fM-52" value="Customer Relationship Management" style="text;html=1;align=center;verticalAlign=middle;resizable=0;points=[];autosize=1;strokeColor=none;fillColor=none;" vertex="1" parent="1">
          <mxGeometry x="93" y="260" width="213" height="26" as="geometry" />
        </mxCell>
        <mxCell id="Ohqho6oqkoJvZrEitsMi-1" value="&lt;b&gt;&lt;font style=&quot;font-size: 20px;&quot;&gt;Integration Model&lt;/font&gt;&lt;/b&gt;" style="rounded=1;whiteSpace=wrap;html=1;" vertex="1" parent="1">
          <mxGeometry x="33" y="170" width="334" height="60" as="geometry" />
        </mxCell>
      </root>
    </mxGraphModel>
  </diagram>
  <diagram id="woThg3WmBew0-kf3-4rB" name="Sales Data Mart">
    <mxGraphModel dx="1901" dy="1194" grid="0" gridSize="10" guides="1" tooltips="1" connect="1" arrows="1" fold="1" page="1" pageScale="1" pageWidth="850" pageHeight="1100" math="0" shadow="0">
      <root>
        <mxCell id="0" />
        <mxCell id="1" parent="0" />
        <mxCell id="mNG93JZxVF3oCDrOEev_-20" value="gold.dim_customer" style="shape=table;startSize=30;container=1;collapsible=1;childLayout=tableLayout;fixedRows=1;rowLines=0;fontStyle=1;align=center;resizeLast=1;html=1;fillColor=#fff2cc;gradientColor=#ffd966;strokeColor=#d6b656;" vertex="1" parent="1">
          <mxGeometry x="-763" y="284" width="180" height="330" as="geometry" />
        </mxCell>
        <mxCell id="mNG93JZxVF3oCDrOEev_-21" value="" style="shape=tableRow;horizontal=0;startSize=0;swimlaneHead=0;swimlaneBody=0;fillColor=none;collapsible=0;dropTarget=0;points=[[0,0.5],[1,0.5]];portConstraint=eastwest;top=0;left=0;right=0;bottom=1;" vertex="1" parent="mNG93JZxVF3oCDrOEev_-20">
          <mxGeometry y="30" width="180" height="30" as="geometry" />
        </mxCell>
        <mxCell id="mNG93JZxVF3oCDrOEev_-22" value="PK" style="shape=partialRectangle;connectable=0;fillColor=none;top=0;left=0;bottom=0;right=0;fontStyle=1;overflow=hidden;whiteSpace=wrap;html=1;" vertex="1" parent="mNG93JZxVF3oCDrOEev_-21">
          <mxGeometry width="30" height="30" as="geometry">
            <mxRectangle width="30" height="30" as="alternateBounds" />
          </mxGeometry>
        </mxCell>
        <mxCell id="mNG93JZxVF3oCDrOEev_-23" value="customer_key" style="shape=partialRectangle;connectable=0;fillColor=none;top=0;left=0;bottom=0;right=0;align=left;spacingLeft=6;fontStyle=5;overflow=hidden;whiteSpace=wrap;html=1;" vertex="1" parent="mNG93JZxVF3oCDrOEev_-21">
          <mxGeometry x="30" width="150" height="30" as="geometry">
            <mxRectangle width="150" height="30" as="alternateBounds" />
          </mxGeometry>
        </mxCell>
        <mxCell id="mNG93JZxVF3oCDrOEev_-24" value="" style="shape=tableRow;horizontal=0;startSize=0;swimlaneHead=0;swimlaneBody=0;fillColor=none;collapsible=0;dropTarget=0;points=[[0,0.5],[1,0.5]];portConstraint=eastwest;top=0;left=0;right=0;bottom=0;" vertex="1" parent="mNG93JZxVF3oCDrOEev_-20">
          <mxGeometry y="60" width="180" height="30" as="geometry" />
        </mxCell>
        <mxCell id="mNG93JZxVF3oCDrOEev_-25" value="" style="shape=partialRectangle;connectable=0;fillColor=none;top=0;left=0;bottom=0;right=0;editable=1;overflow=hidden;whiteSpace=wrap;html=1;" vertex="1" parent="mNG93JZxVF3oCDrOEev_-24">
          <mxGeometry width="30" height="30" as="geometry">
            <mxRectangle width="30" height="30" as="alternateBounds" />
          </mxGeometry>
        </mxCell>
        <mxCell id="mNG93JZxVF3oCDrOEev_-26" value="customer_id" style="shape=partialRectangle;connectable=0;fillColor=none;top=0;left=0;bottom=0;right=0;align=left;spacingLeft=6;overflow=hidden;whiteSpace=wrap;html=1;" vertex="1" parent="mNG93JZxVF3oCDrOEev_-24">
          <mxGeometry x="30" width="150" height="30" as="geometry">
            <mxRectangle width="150" height="30" as="alternateBounds" />
          </mxGeometry>
        </mxCell>
        <mxCell id="mNG93JZxVF3oCDrOEev_-27" value="" style="shape=tableRow;horizontal=0;startSize=0;swimlaneHead=0;swimlaneBody=0;fillColor=none;collapsible=0;dropTarget=0;points=[[0,0.5],[1,0.5]];portConstraint=eastwest;top=0;left=0;right=0;bottom=0;" vertex="1" parent="mNG93JZxVF3oCDrOEev_-20">
          <mxGeometry y="90" width="180" height="30" as="geometry" />
        </mxCell>
        <mxCell id="mNG93JZxVF3oCDrOEev_-28" value="" style="shape=partialRectangle;connectable=0;fillColor=none;top=0;left=0;bottom=0;right=0;editable=1;overflow=hidden;whiteSpace=wrap;html=1;" vertex="1" parent="mNG93JZxVF3oCDrOEev_-27">
          <mxGeometry width="30" height="30" as="geometry">
            <mxRectangle width="30" height="30" as="alternateBounds" />
          </mxGeometry>
        </mxCell>
        <mxCell id="mNG93JZxVF3oCDrOEev_-29" value="customer_number" style="shape=partialRectangle;connectable=0;fillColor=none;top=0;left=0;bottom=0;right=0;align=left;spacingLeft=6;overflow=hidden;whiteSpace=wrap;html=1;" vertex="1" parent="mNG93JZxVF3oCDrOEev_-27">
          <mxGeometry x="30" width="150" height="30" as="geometry">
            <mxRectangle width="150" height="30" as="alternateBounds" />
          </mxGeometry>
        </mxCell>
        <mxCell id="mNG93JZxVF3oCDrOEev_-30" value="" style="shape=tableRow;horizontal=0;startSize=0;swimlaneHead=0;swimlaneBody=0;fillColor=none;collapsible=0;dropTarget=0;points=[[0,0.5],[1,0.5]];portConstraint=eastwest;top=0;left=0;right=0;bottom=0;" vertex="1" parent="mNG93JZxVF3oCDrOEev_-20">
          <mxGeometry y="120" width="180" height="30" as="geometry" />
        </mxCell>
        <mxCell id="mNG93JZxVF3oCDrOEev_-31" value="" style="shape=partialRectangle;connectable=0;fillColor=none;top=0;left=0;bottom=0;right=0;editable=1;overflow=hidden;whiteSpace=wrap;html=1;" vertex="1" parent="mNG93JZxVF3oCDrOEev_-30">
          <mxGeometry width="30" height="30" as="geometry">
            <mxRectangle width="30" height="30" as="alternateBounds" />
          </mxGeometry>
        </mxCell>
        <mxCell id="mNG93JZxVF3oCDrOEev_-32" value="first_name" style="shape=partialRectangle;connectable=0;fillColor=none;top=0;left=0;bottom=0;right=0;align=left;spacingLeft=6;overflow=hidden;whiteSpace=wrap;html=1;" vertex="1" parent="mNG93JZxVF3oCDrOEev_-30">
          <mxGeometry x="30" width="150" height="30" as="geometry">
            <mxRectangle width="150" height="30" as="alternateBounds" />
          </mxGeometry>
        </mxCell>
        <mxCell id="mNG93JZxVF3oCDrOEev_-33" value="" style="shape=tableRow;horizontal=0;startSize=0;swimlaneHead=0;swimlaneBody=0;fillColor=none;collapsible=0;dropTarget=0;points=[[0,0.5],[1,0.5]];portConstraint=eastwest;top=0;left=0;right=0;bottom=0;" vertex="1" parent="mNG93JZxVF3oCDrOEev_-20">
          <mxGeometry y="150" width="180" height="30" as="geometry" />
        </mxCell>
        <mxCell id="mNG93JZxVF3oCDrOEev_-34" value="" style="shape=partialRectangle;connectable=0;fillColor=none;top=0;left=0;bottom=0;right=0;editable=1;overflow=hidden;whiteSpace=wrap;html=1;" vertex="1" parent="mNG93JZxVF3oCDrOEev_-33">
          <mxGeometry width="30" height="30" as="geometry">
            <mxRectangle width="30" height="30" as="alternateBounds" />
          </mxGeometry>
        </mxCell>
        <mxCell id="mNG93JZxVF3oCDrOEev_-35" value="last_name" style="shape=partialRectangle;connectable=0;fillColor=none;top=0;left=0;bottom=0;right=0;align=left;spacingLeft=6;overflow=hidden;whiteSpace=wrap;html=1;" vertex="1" parent="mNG93JZxVF3oCDrOEev_-33">
          <mxGeometry x="30" width="150" height="30" as="geometry">
            <mxRectangle width="150" height="30" as="alternateBounds" />
          </mxGeometry>
        </mxCell>
        <mxCell id="mNG93JZxVF3oCDrOEev_-36" value="" style="shape=tableRow;horizontal=0;startSize=0;swimlaneHead=0;swimlaneBody=0;fillColor=none;collapsible=0;dropTarget=0;points=[[0,0.5],[1,0.5]];portConstraint=eastwest;top=0;left=0;right=0;bottom=0;" vertex="1" parent="mNG93JZxVF3oCDrOEev_-20">
          <mxGeometry y="180" width="180" height="30" as="geometry" />
        </mxCell>
        <mxCell id="mNG93JZxVF3oCDrOEev_-37" value="" style="shape=partialRectangle;connectable=0;fillColor=none;top=0;left=0;bottom=0;right=0;editable=1;overflow=hidden;whiteSpace=wrap;html=1;" vertex="1" parent="mNG93JZxVF3oCDrOEev_-36">
          <mxGeometry width="30" height="30" as="geometry">
            <mxRectangle width="30" height="30" as="alternateBounds" />
          </mxGeometry>
        </mxCell>
        <mxCell id="mNG93JZxVF3oCDrOEev_-38" value="country" style="shape=partialRectangle;connectable=0;fillColor=none;top=0;left=0;bottom=0;right=0;align=left;spacingLeft=6;overflow=hidden;whiteSpace=wrap;html=1;" vertex="1" parent="mNG93JZxVF3oCDrOEev_-36">
          <mxGeometry x="30" width="150" height="30" as="geometry">
            <mxRectangle width="150" height="30" as="alternateBounds" />
          </mxGeometry>
        </mxCell>
        <mxCell id="mNG93JZxVF3oCDrOEev_-39" value="" style="shape=tableRow;horizontal=0;startSize=0;swimlaneHead=0;swimlaneBody=0;fillColor=none;collapsible=0;dropTarget=0;points=[[0,0.5],[1,0.5]];portConstraint=eastwest;top=0;left=0;right=0;bottom=0;" vertex="1" parent="mNG93JZxVF3oCDrOEev_-20">
          <mxGeometry y="210" width="180" height="30" as="geometry" />
        </mxCell>
        <mxCell id="mNG93JZxVF3oCDrOEev_-40" value="" style="shape=partialRectangle;connectable=0;fillColor=none;top=0;left=0;bottom=0;right=0;editable=1;overflow=hidden;whiteSpace=wrap;html=1;" vertex="1" parent="mNG93JZxVF3oCDrOEev_-39">
          <mxGeometry width="30" height="30" as="geometry">
            <mxRectangle width="30" height="30" as="alternateBounds" />
          </mxGeometry>
        </mxCell>
        <mxCell id="mNG93JZxVF3oCDrOEev_-41" value="marital_status" style="shape=partialRectangle;connectable=0;fillColor=none;top=0;left=0;bottom=0;right=0;align=left;spacingLeft=6;overflow=hidden;whiteSpace=wrap;html=1;" vertex="1" parent="mNG93JZxVF3oCDrOEev_-39">
          <mxGeometry x="30" width="150" height="30" as="geometry">
            <mxRectangle width="150" height="30" as="alternateBounds" />
          </mxGeometry>
        </mxCell>
        <mxCell id="mNG93JZxVF3oCDrOEev_-42" value="" style="shape=tableRow;horizontal=0;startSize=0;swimlaneHead=0;swimlaneBody=0;fillColor=none;collapsible=0;dropTarget=0;points=[[0,0.5],[1,0.5]];portConstraint=eastwest;top=0;left=0;right=0;bottom=0;" vertex="1" parent="mNG93JZxVF3oCDrOEev_-20">
          <mxGeometry y="240" width="180" height="30" as="geometry" />
        </mxCell>
        <mxCell id="mNG93JZxVF3oCDrOEev_-43" value="" style="shape=partialRectangle;connectable=0;fillColor=none;top=0;left=0;bottom=0;right=0;editable=1;overflow=hidden;whiteSpace=wrap;html=1;" vertex="1" parent="mNG93JZxVF3oCDrOEev_-42">
          <mxGeometry width="30" height="30" as="geometry">
            <mxRectangle width="30" height="30" as="alternateBounds" />
          </mxGeometry>
        </mxCell>
        <mxCell id="mNG93JZxVF3oCDrOEev_-44" value="gender" style="shape=partialRectangle;connectable=0;fillColor=none;top=0;left=0;bottom=0;right=0;align=left;spacingLeft=6;overflow=hidden;whiteSpace=wrap;html=1;" vertex="1" parent="mNG93JZxVF3oCDrOEev_-42">
          <mxGeometry x="30" width="150" height="30" as="geometry">
            <mxRectangle width="150" height="30" as="alternateBounds" />
          </mxGeometry>
        </mxCell>
        <mxCell id="mNG93JZxVF3oCDrOEev_-45" value="" style="shape=tableRow;horizontal=0;startSize=0;swimlaneHead=0;swimlaneBody=0;fillColor=none;collapsible=0;dropTarget=0;points=[[0,0.5],[1,0.5]];portConstraint=eastwest;top=0;left=0;right=0;bottom=0;" vertex="1" parent="mNG93JZxVF3oCDrOEev_-20">
          <mxGeometry y="270" width="180" height="30" as="geometry" />
        </mxCell>
        <mxCell id="mNG93JZxVF3oCDrOEev_-46" value="" style="shape=partialRectangle;connectable=0;fillColor=none;top=0;left=0;bottom=0;right=0;editable=1;overflow=hidden;whiteSpace=wrap;html=1;" vertex="1" parent="mNG93JZxVF3oCDrOEev_-45">
          <mxGeometry width="30" height="30" as="geometry">
            <mxRectangle width="30" height="30" as="alternateBounds" />
          </mxGeometry>
        </mxCell>
        <mxCell id="mNG93JZxVF3oCDrOEev_-47" value="birthdate" style="shape=partialRectangle;connectable=0;fillColor=none;top=0;left=0;bottom=0;right=0;align=left;spacingLeft=6;overflow=hidden;whiteSpace=wrap;html=1;" vertex="1" parent="mNG93JZxVF3oCDrOEev_-45">
          <mxGeometry x="30" width="150" height="30" as="geometry">
            <mxRectangle width="150" height="30" as="alternateBounds" />
          </mxGeometry>
        </mxCell>
        <mxCell id="mNG93JZxVF3oCDrOEev_-48" value="" style="shape=tableRow;horizontal=0;startSize=0;swimlaneHead=0;swimlaneBody=0;fillColor=none;collapsible=0;dropTarget=0;points=[[0,0.5],[1,0.5]];portConstraint=eastwest;top=0;left=0;right=0;bottom=0;" vertex="1" parent="mNG93JZxVF3oCDrOEev_-20">
          <mxGeometry y="300" width="180" height="30" as="geometry" />
        </mxCell>
        <mxCell id="mNG93JZxVF3oCDrOEev_-49" value="" style="shape=partialRectangle;connectable=0;fillColor=none;top=0;left=0;bottom=0;right=0;editable=1;overflow=hidden;whiteSpace=wrap;html=1;" vertex="1" parent="mNG93JZxVF3oCDrOEev_-48">
          <mxGeometry width="30" height="30" as="geometry">
            <mxRectangle width="30" height="30" as="alternateBounds" />
          </mxGeometry>
        </mxCell>
        <mxCell id="mNG93JZxVF3oCDrOEev_-50" value="create_date" style="shape=partialRectangle;connectable=0;fillColor=none;top=0;left=0;bottom=0;right=0;align=left;spacingLeft=6;overflow=hidden;whiteSpace=wrap;html=1;" vertex="1" parent="mNG93JZxVF3oCDrOEev_-48">
          <mxGeometry x="30" width="150" height="30" as="geometry">
            <mxRectangle width="150" height="30" as="alternateBounds" />
          </mxGeometry>
        </mxCell>
        <mxCell id="mNG93JZxVF3oCDrOEev_-54" value="gold.dim_customer" style="shape=table;startSize=30;container=1;collapsible=1;childLayout=tableLayout;fixedRows=1;rowLines=0;fontStyle=1;align=center;resizeLast=1;html=1;fillColor=#fff2cc;gradientColor=#ffd966;strokeColor=#d6b656;" vertex="1" parent="1">
          <mxGeometry x="-244" y="284" width="180" height="358.8461538461538" as="geometry" />
        </mxCell>
        <mxCell id="mNG93JZxVF3oCDrOEev_-55" value="" style="shape=tableRow;horizontal=0;startSize=0;swimlaneHead=0;swimlaneBody=0;fillColor=none;collapsible=0;dropTarget=0;points=[[0,0.5],[1,0.5]];portConstraint=eastwest;top=0;left=0;right=0;bottom=1;" vertex="1" parent="mNG93JZxVF3oCDrOEev_-54">
          <mxGeometry y="30" width="180" height="30" as="geometry" />
        </mxCell>
        <mxCell id="mNG93JZxVF3oCDrOEev_-56" value="PK" style="shape=partialRectangle;connectable=0;fillColor=none;top=0;left=0;bottom=0;right=0;fontStyle=1;overflow=hidden;whiteSpace=wrap;html=1;" vertex="1" parent="mNG93JZxVF3oCDrOEev_-55">
          <mxGeometry width="30" height="30" as="geometry">
            <mxRectangle width="30" height="30" as="alternateBounds" />
          </mxGeometry>
        </mxCell>
        <mxCell id="mNG93JZxVF3oCDrOEev_-57" value="product_key" style="shape=partialRectangle;connectable=0;fillColor=none;top=0;left=0;bottom=0;right=0;align=left;spacingLeft=6;fontStyle=5;overflow=hidden;whiteSpace=wrap;html=1;" vertex="1" parent="mNG93JZxVF3oCDrOEev_-55">
          <mxGeometry x="30" width="150" height="30" as="geometry">
            <mxRectangle width="150" height="30" as="alternateBounds" />
          </mxGeometry>
        </mxCell>
        <mxCell id="mNG93JZxVF3oCDrOEev_-58" value="" style="shape=tableRow;horizontal=0;startSize=0;swimlaneHead=0;swimlaneBody=0;fillColor=none;collapsible=0;dropTarget=0;points=[[0,0.5],[1,0.5]];portConstraint=eastwest;top=0;left=0;right=0;bottom=0;" vertex="1" parent="mNG93JZxVF3oCDrOEev_-54">
          <mxGeometry y="60" width="180" height="30" as="geometry" />
        </mxCell>
        <mxCell id="mNG93JZxVF3oCDrOEev_-59" value="" style="shape=partialRectangle;connectable=0;fillColor=none;top=0;left=0;bottom=0;right=0;editable=1;overflow=hidden;whiteSpace=wrap;html=1;" vertex="1" parent="mNG93JZxVF3oCDrOEev_-58">
          <mxGeometry width="30" height="30" as="geometry">
            <mxRectangle width="30" height="30" as="alternateBounds" />
          </mxGeometry>
        </mxCell>
        <mxCell id="mNG93JZxVF3oCDrOEev_-60" value="product_id" style="shape=partialRectangle;connectable=0;fillColor=none;top=0;left=0;bottom=0;right=0;align=left;spacingLeft=6;overflow=hidden;whiteSpace=wrap;html=1;" vertex="1" parent="mNG93JZxVF3oCDrOEev_-58">
          <mxGeometry x="30" width="150" height="30" as="geometry">
            <mxRectangle width="150" height="30" as="alternateBounds" />
          </mxGeometry>
        </mxCell>
        <mxCell id="mNG93JZxVF3oCDrOEev_-61" value="" style="shape=tableRow;horizontal=0;startSize=0;swimlaneHead=0;swimlaneBody=0;fillColor=none;collapsible=0;dropTarget=0;points=[[0,0.5],[1,0.5]];portConstraint=eastwest;top=0;left=0;right=0;bottom=0;" vertex="1" parent="mNG93JZxVF3oCDrOEev_-54">
          <mxGeometry y="90" width="180" height="30" as="geometry" />
        </mxCell>
        <mxCell id="mNG93JZxVF3oCDrOEev_-62" value="" style="shape=partialRectangle;connectable=0;fillColor=none;top=0;left=0;bottom=0;right=0;editable=1;overflow=hidden;whiteSpace=wrap;html=1;" vertex="1" parent="mNG93JZxVF3oCDrOEev_-61">
          <mxGeometry width="30" height="30" as="geometry">
            <mxRectangle width="30" height="30" as="alternateBounds" />
          </mxGeometry>
        </mxCell>
        <mxCell id="mNG93JZxVF3oCDrOEev_-63" value="product_number" style="shape=partialRectangle;connectable=0;fillColor=none;top=0;left=0;bottom=0;right=0;align=left;spacingLeft=6;overflow=hidden;whiteSpace=wrap;html=1;" vertex="1" parent="mNG93JZxVF3oCDrOEev_-61">
          <mxGeometry x="30" width="150" height="30" as="geometry">
            <mxRectangle width="150" height="30" as="alternateBounds" />
          </mxGeometry>
        </mxCell>
        <mxCell id="mNG93JZxVF3oCDrOEev_-64" value="" style="shape=tableRow;horizontal=0;startSize=0;swimlaneHead=0;swimlaneBody=0;fillColor=none;collapsible=0;dropTarget=0;points=[[0,0.5],[1,0.5]];portConstraint=eastwest;top=0;left=0;right=0;bottom=0;" vertex="1" parent="mNG93JZxVF3oCDrOEev_-54">
          <mxGeometry y="120" width="180" height="30" as="geometry" />
        </mxCell>
        <mxCell id="mNG93JZxVF3oCDrOEev_-65" value="" style="shape=partialRectangle;connectable=0;fillColor=none;top=0;left=0;bottom=0;right=0;editable=1;overflow=hidden;whiteSpace=wrap;html=1;" vertex="1" parent="mNG93JZxVF3oCDrOEev_-64">
          <mxGeometry width="30" height="30" as="geometry">
            <mxRectangle width="30" height="30" as="alternateBounds" />
          </mxGeometry>
        </mxCell>
        <mxCell id="mNG93JZxVF3oCDrOEev_-66" value="product_name" style="shape=partialRectangle;connectable=0;fillColor=none;top=0;left=0;bottom=0;right=0;align=left;spacingLeft=6;overflow=hidden;whiteSpace=wrap;html=1;" vertex="1" parent="mNG93JZxVF3oCDrOEev_-64">
          <mxGeometry x="30" width="150" height="30" as="geometry">
            <mxRectangle width="150" height="30" as="alternateBounds" />
          </mxGeometry>
        </mxCell>
        <mxCell id="mNG93JZxVF3oCDrOEev_-67" value="" style="shape=tableRow;horizontal=0;startSize=0;swimlaneHead=0;swimlaneBody=0;fillColor=none;collapsible=0;dropTarget=0;points=[[0,0.5],[1,0.5]];portConstraint=eastwest;top=0;left=0;right=0;bottom=0;" vertex="1" parent="mNG93JZxVF3oCDrOEev_-54">
          <mxGeometry y="150" width="180" height="30" as="geometry" />
        </mxCell>
        <mxCell id="mNG93JZxVF3oCDrOEev_-68" value="" style="shape=partialRectangle;connectable=0;fillColor=none;top=0;left=0;bottom=0;right=0;editable=1;overflow=hidden;whiteSpace=wrap;html=1;" vertex="1" parent="mNG93JZxVF3oCDrOEev_-67">
          <mxGeometry width="30" height="30" as="geometry">
            <mxRectangle width="30" height="30" as="alternateBounds" />
          </mxGeometry>
        </mxCell>
        <mxCell id="mNG93JZxVF3oCDrOEev_-69" value="category_id" style="shape=partialRectangle;connectable=0;fillColor=none;top=0;left=0;bottom=0;right=0;align=left;spacingLeft=6;overflow=hidden;whiteSpace=wrap;html=1;" vertex="1" parent="mNG93JZxVF3oCDrOEev_-67">
          <mxGeometry x="30" width="150" height="30" as="geometry">
            <mxRectangle width="150" height="30" as="alternateBounds" />
          </mxGeometry>
        </mxCell>
        <mxCell id="mNG93JZxVF3oCDrOEev_-70" value="" style="shape=tableRow;horizontal=0;startSize=0;swimlaneHead=0;swimlaneBody=0;fillColor=none;collapsible=0;dropTarget=0;points=[[0,0.5],[1,0.5]];portConstraint=eastwest;top=0;left=0;right=0;bottom=0;" vertex="1" parent="mNG93JZxVF3oCDrOEev_-54">
          <mxGeometry y="180" width="180" height="30" as="geometry" />
        </mxCell>
        <mxCell id="mNG93JZxVF3oCDrOEev_-71" value="" style="shape=partialRectangle;connectable=0;fillColor=none;top=0;left=0;bottom=0;right=0;editable=1;overflow=hidden;whiteSpace=wrap;html=1;" vertex="1" parent="mNG93JZxVF3oCDrOEev_-70">
          <mxGeometry width="30" height="30" as="geometry">
            <mxRectangle width="30" height="30" as="alternateBounds" />
          </mxGeometry>
        </mxCell>
        <mxCell id="mNG93JZxVF3oCDrOEev_-72" value="category" style="shape=partialRectangle;connectable=0;fillColor=none;top=0;left=0;bottom=0;right=0;align=left;spacingLeft=6;overflow=hidden;whiteSpace=wrap;html=1;" vertex="1" parent="mNG93JZxVF3oCDrOEev_-70">
          <mxGeometry x="30" width="150" height="30" as="geometry">
            <mxRectangle width="150" height="30" as="alternateBounds" />
          </mxGeometry>
        </mxCell>
        <mxCell id="mNG93JZxVF3oCDrOEev_-73" value="" style="shape=tableRow;horizontal=0;startSize=0;swimlaneHead=0;swimlaneBody=0;fillColor=none;collapsible=0;dropTarget=0;points=[[0,0.5],[1,0.5]];portConstraint=eastwest;top=0;left=0;right=0;bottom=0;" vertex="1" parent="mNG93JZxVF3oCDrOEev_-54">
          <mxGeometry y="210" width="180" height="28" as="geometry" />
        </mxCell>
        <mxCell id="mNG93JZxVF3oCDrOEev_-74" value="" style="shape=partialRectangle;connectable=0;fillColor=none;top=0;left=0;bottom=0;right=0;editable=1;overflow=hidden;whiteSpace=wrap;html=1;" vertex="1" parent="mNG93JZxVF3oCDrOEev_-73">
          <mxGeometry width="30" height="28" as="geometry">
            <mxRectangle width="30" height="28" as="alternateBounds" />
          </mxGeometry>
        </mxCell>
        <mxCell id="mNG93JZxVF3oCDrOEev_-75" value="subcategory" style="shape=partialRectangle;connectable=0;fillColor=none;top=0;left=0;bottom=0;right=0;align=left;spacingLeft=6;overflow=hidden;whiteSpace=wrap;html=1;" vertex="1" parent="mNG93JZxVF3oCDrOEev_-73">
          <mxGeometry x="30" width="150" height="28" as="geometry">
            <mxRectangle width="150" height="28" as="alternateBounds" />
          </mxGeometry>
        </mxCell>
        <mxCell id="mNG93JZxVF3oCDrOEev_-76" value="" style="shape=tableRow;horizontal=0;startSize=0;swimlaneHead=0;swimlaneBody=0;fillColor=none;collapsible=0;dropTarget=0;points=[[0,0.5],[1,0.5]];portConstraint=eastwest;top=0;left=0;right=0;bottom=0;" vertex="1" parent="mNG93JZxVF3oCDrOEev_-54">
          <mxGeometry y="238" width="180" height="30" as="geometry" />
        </mxCell>
        <mxCell id="mNG93JZxVF3oCDrOEev_-77" value="" style="shape=partialRectangle;connectable=0;fillColor=none;top=0;left=0;bottom=0;right=0;editable=1;overflow=hidden;whiteSpace=wrap;html=1;" vertex="1" parent="mNG93JZxVF3oCDrOEev_-76">
          <mxGeometry width="30" height="30" as="geometry">
            <mxRectangle width="30" height="30" as="alternateBounds" />
          </mxGeometry>
        </mxCell>
        <mxCell id="mNG93JZxVF3oCDrOEev_-78" value="maintenance" style="shape=partialRectangle;connectable=0;fillColor=none;top=0;left=0;bottom=0;right=0;align=left;spacingLeft=6;overflow=hidden;whiteSpace=wrap;html=1;" vertex="1" parent="mNG93JZxVF3oCDrOEev_-76">
          <mxGeometry x="30" width="150" height="30" as="geometry">
            <mxRectangle width="150" height="30" as="alternateBounds" />
          </mxGeometry>
        </mxCell>
        <mxCell id="mNG93JZxVF3oCDrOEev_-79" value="" style="shape=tableRow;horizontal=0;startSize=0;swimlaneHead=0;swimlaneBody=0;fillColor=none;collapsible=0;dropTarget=0;points=[[0,0.5],[1,0.5]];portConstraint=eastwest;top=0;left=0;right=0;bottom=0;" vertex="1" parent="mNG93JZxVF3oCDrOEev_-54">
          <mxGeometry y="268" width="180" height="30" as="geometry" />
        </mxCell>
        <mxCell id="mNG93JZxVF3oCDrOEev_-80" value="" style="shape=partialRectangle;connectable=0;fillColor=none;top=0;left=0;bottom=0;right=0;editable=1;overflow=hidden;whiteSpace=wrap;html=1;" vertex="1" parent="mNG93JZxVF3oCDrOEev_-79">
          <mxGeometry width="30" height="30" as="geometry">
            <mxRectangle width="30" height="30" as="alternateBounds" />
          </mxGeometry>
        </mxCell>
        <mxCell id="mNG93JZxVF3oCDrOEev_-81" value="cost" style="shape=partialRectangle;connectable=0;fillColor=none;top=0;left=0;bottom=0;right=0;align=left;spacingLeft=6;overflow=hidden;whiteSpace=wrap;html=1;" vertex="1" parent="mNG93JZxVF3oCDrOEev_-79">
          <mxGeometry x="30" width="150" height="30" as="geometry">
            <mxRectangle width="150" height="30" as="alternateBounds" />
          </mxGeometry>
        </mxCell>
        <mxCell id="mNG93JZxVF3oCDrOEev_-82" value="" style="shape=tableRow;horizontal=0;startSize=0;swimlaneHead=0;swimlaneBody=0;fillColor=none;collapsible=0;dropTarget=0;points=[[0,0.5],[1,0.5]];portConstraint=eastwest;top=0;left=0;right=0;bottom=0;" vertex="1" parent="mNG93JZxVF3oCDrOEev_-54">
          <mxGeometry y="298" width="180" height="30" as="geometry" />
        </mxCell>
        <mxCell id="mNG93JZxVF3oCDrOEev_-83" value="" style="shape=partialRectangle;connectable=0;fillColor=none;top=0;left=0;bottom=0;right=0;editable=1;overflow=hidden;whiteSpace=wrap;html=1;" vertex="1" parent="mNG93JZxVF3oCDrOEev_-82">
          <mxGeometry width="30" height="30" as="geometry">
            <mxRectangle width="30" height="30" as="alternateBounds" />
          </mxGeometry>
        </mxCell>
        <mxCell id="mNG93JZxVF3oCDrOEev_-84" value="product_line" style="shape=partialRectangle;connectable=0;fillColor=none;top=0;left=0;bottom=0;right=0;align=left;spacingLeft=6;overflow=hidden;whiteSpace=wrap;html=1;" vertex="1" parent="mNG93JZxVF3oCDrOEev_-82">
          <mxGeometry x="30" width="150" height="30" as="geometry">
            <mxRectangle width="150" height="30" as="alternateBounds" />
          </mxGeometry>
        </mxCell>
        <mxCell id="mNG93JZxVF3oCDrOEev_-85" value="" style="shape=tableRow;horizontal=0;startSize=0;swimlaneHead=0;swimlaneBody=0;fillColor=none;collapsible=0;dropTarget=0;points=[[0,0.5],[1,0.5]];portConstraint=eastwest;top=0;left=0;right=0;bottom=0;" vertex="1" parent="mNG93JZxVF3oCDrOEev_-54">
          <mxGeometry y="328" width="180" height="30" as="geometry" />
        </mxCell>
        <mxCell id="mNG93JZxVF3oCDrOEev_-86" value="" style="shape=partialRectangle;connectable=0;fillColor=none;top=0;left=0;bottom=0;right=0;editable=1;overflow=hidden;whiteSpace=wrap;html=1;" vertex="1" parent="mNG93JZxVF3oCDrOEev_-85">
          <mxGeometry width="30" height="30" as="geometry">
            <mxRectangle width="30" height="30" as="alternateBounds" />
          </mxGeometry>
        </mxCell>
        <mxCell id="mNG93JZxVF3oCDrOEev_-87" value="start_date" style="shape=partialRectangle;connectable=0;fillColor=none;top=0;left=0;bottom=0;right=0;align=left;spacingLeft=6;overflow=hidden;whiteSpace=wrap;html=1;" vertex="1" parent="mNG93JZxVF3oCDrOEev_-85">
          <mxGeometry x="30" width="150" height="30" as="geometry">
            <mxRectangle width="150" height="30" as="alternateBounds" />
          </mxGeometry>
        </mxCell>
        <mxCell id="mNG93JZxVF3oCDrOEev_-88" value="gold.fact_sales" style="shape=table;startSize=30;container=1;collapsible=1;childLayout=tableLayout;fixedRows=1;rowLines=0;fontStyle=1;align=center;resizeLast=1;html=1;fillColor=#dae8fc;gradientColor=#7ea6e0;strokeColor=#6c8ebf;" vertex="1" parent="1">
          <mxGeometry x="-506" y="284" width="180" height="298.8461538461538" as="geometry" />
        </mxCell>
        <mxCell id="mNG93JZxVF3oCDrOEev_-92" value="" style="shape=tableRow;horizontal=0;startSize=0;swimlaneHead=0;swimlaneBody=0;fillColor=none;collapsible=0;dropTarget=0;points=[[0,0.5],[1,0.5]];portConstraint=eastwest;top=0;left=0;right=0;bottom=0;" vertex="1" parent="mNG93JZxVF3oCDrOEev_-88">
          <mxGeometry y="30" width="180" height="30" as="geometry" />
        </mxCell>
        <mxCell id="mNG93JZxVF3oCDrOEev_-93" value="" style="shape=partialRectangle;connectable=0;fillColor=none;top=0;left=0;bottom=0;right=0;editable=1;overflow=hidden;whiteSpace=wrap;html=1;" vertex="1" parent="mNG93JZxVF3oCDrOEev_-92">
          <mxGeometry width="30" height="30" as="geometry">
            <mxRectangle width="30" height="30" as="alternateBounds" />
          </mxGeometry>
        </mxCell>
        <mxCell id="mNG93JZxVF3oCDrOEev_-94" value="&lt;span style=&quot;font-weight: 700; text-decoration-line: underline;&quot;&gt;order_number&lt;/span&gt;" style="shape=partialRectangle;connectable=0;fillColor=none;top=0;left=0;bottom=0;right=0;align=left;spacingLeft=6;overflow=hidden;whiteSpace=wrap;html=1;" vertex="1" parent="mNG93JZxVF3oCDrOEev_-92">
          <mxGeometry x="30" width="150" height="30" as="geometry">
            <mxRectangle width="150" height="30" as="alternateBounds" />
          </mxGeometry>
        </mxCell>
        <mxCell id="mNG93JZxVF3oCDrOEev_-124" value="" style="shape=tableRow;horizontal=0;startSize=0;swimlaneHead=0;swimlaneBody=0;fillColor=none;collapsible=0;dropTarget=0;points=[[0,0.5],[1,0.5]];portConstraint=eastwest;top=0;left=0;right=0;bottom=0;" vertex="1" parent="mNG93JZxVF3oCDrOEev_-88">
          <mxGeometry y="60" width="180" height="30" as="geometry" />
        </mxCell>
        <mxCell id="mNG93JZxVF3oCDrOEev_-125" value="&lt;b&gt;FK1&lt;/b&gt;" style="shape=partialRectangle;connectable=0;fillColor=none;top=0;left=0;bottom=0;right=0;editable=1;overflow=hidden;whiteSpace=wrap;html=1;" vertex="1" parent="mNG93JZxVF3oCDrOEev_-124">
          <mxGeometry width="30" height="30" as="geometry">
            <mxRectangle width="30" height="30" as="alternateBounds" />
          </mxGeometry>
        </mxCell>
        <mxCell id="mNG93JZxVF3oCDrOEev_-126" value="product_key" style="shape=partialRectangle;connectable=0;fillColor=none;top=0;left=0;bottom=0;right=0;align=left;spacingLeft=6;overflow=hidden;whiteSpace=wrap;html=1;" vertex="1" parent="mNG93JZxVF3oCDrOEev_-124">
          <mxGeometry x="30" width="150" height="30" as="geometry">
            <mxRectangle width="150" height="30" as="alternateBounds" />
          </mxGeometry>
        </mxCell>
        <mxCell id="mNG93JZxVF3oCDrOEev_-95" value="" style="shape=tableRow;horizontal=0;startSize=0;swimlaneHead=0;swimlaneBody=0;fillColor=none;collapsible=0;dropTarget=0;points=[[0,0.5],[1,0.5]];portConstraint=eastwest;top=0;left=0;right=0;bottom=0;" vertex="1" parent="mNG93JZxVF3oCDrOEev_-88">
          <mxGeometry y="90" width="180" height="30" as="geometry" />
        </mxCell>
        <mxCell id="mNG93JZxVF3oCDrOEev_-96" value="&lt;b&gt;FK2&lt;/b&gt;" style="shape=partialRectangle;connectable=0;fillColor=none;top=0;left=0;bottom=0;right=0;editable=1;overflow=hidden;whiteSpace=wrap;html=1;" vertex="1" parent="mNG93JZxVF3oCDrOEev_-95">
          <mxGeometry width="30" height="30" as="geometry">
            <mxRectangle width="30" height="30" as="alternateBounds" />
          </mxGeometry>
        </mxCell>
        <mxCell id="mNG93JZxVF3oCDrOEev_-97" value="customer_key" style="shape=partialRectangle;connectable=0;fillColor=none;top=0;left=0;bottom=0;right=0;align=left;spacingLeft=6;overflow=hidden;whiteSpace=wrap;html=1;" vertex="1" parent="mNG93JZxVF3oCDrOEev_-95">
          <mxGeometry x="30" width="150" height="30" as="geometry">
            <mxRectangle width="150" height="30" as="alternateBounds" />
          </mxGeometry>
        </mxCell>
        <mxCell id="mNG93JZxVF3oCDrOEev_-98" value="" style="shape=tableRow;horizontal=0;startSize=0;swimlaneHead=0;swimlaneBody=0;fillColor=none;collapsible=0;dropTarget=0;points=[[0,0.5],[1,0.5]];portConstraint=eastwest;top=0;left=0;right=0;bottom=0;" vertex="1" parent="mNG93JZxVF3oCDrOEev_-88">
          <mxGeometry y="120" width="180" height="30" as="geometry" />
        </mxCell>
        <mxCell id="mNG93JZxVF3oCDrOEev_-99" value="" style="shape=partialRectangle;connectable=0;fillColor=none;top=0;left=0;bottom=0;right=0;editable=1;overflow=hidden;whiteSpace=wrap;html=1;" vertex="1" parent="mNG93JZxVF3oCDrOEev_-98">
          <mxGeometry width="30" height="30" as="geometry">
            <mxRectangle width="30" height="30" as="alternateBounds" />
          </mxGeometry>
        </mxCell>
        <mxCell id="mNG93JZxVF3oCDrOEev_-100" value="order_date" style="shape=partialRectangle;connectable=0;fillColor=none;top=0;left=0;bottom=0;right=0;align=left;spacingLeft=6;overflow=hidden;whiteSpace=wrap;html=1;" vertex="1" parent="mNG93JZxVF3oCDrOEev_-98">
          <mxGeometry x="30" width="150" height="30" as="geometry">
            <mxRectangle width="150" height="30" as="alternateBounds" />
          </mxGeometry>
        </mxCell>
        <mxCell id="mNG93JZxVF3oCDrOEev_-101" value="" style="shape=tableRow;horizontal=0;startSize=0;swimlaneHead=0;swimlaneBody=0;fillColor=none;collapsible=0;dropTarget=0;points=[[0,0.5],[1,0.5]];portConstraint=eastwest;top=0;left=0;right=0;bottom=0;" vertex="1" parent="mNG93JZxVF3oCDrOEev_-88">
          <mxGeometry y="150" width="180" height="30" as="geometry" />
        </mxCell>
        <mxCell id="mNG93JZxVF3oCDrOEev_-102" value="" style="shape=partialRectangle;connectable=0;fillColor=none;top=0;left=0;bottom=0;right=0;editable=1;overflow=hidden;whiteSpace=wrap;html=1;" vertex="1" parent="mNG93JZxVF3oCDrOEev_-101">
          <mxGeometry width="30" height="30" as="geometry">
            <mxRectangle width="30" height="30" as="alternateBounds" />
          </mxGeometry>
        </mxCell>
        <mxCell id="mNG93JZxVF3oCDrOEev_-103" value="shipping_date" style="shape=partialRectangle;connectable=0;fillColor=none;top=0;left=0;bottom=0;right=0;align=left;spacingLeft=6;overflow=hidden;whiteSpace=wrap;html=1;" vertex="1" parent="mNG93JZxVF3oCDrOEev_-101">
          <mxGeometry x="30" width="150" height="30" as="geometry">
            <mxRectangle width="150" height="30" as="alternateBounds" />
          </mxGeometry>
        </mxCell>
        <mxCell id="mNG93JZxVF3oCDrOEev_-104" value="" style="shape=tableRow;horizontal=0;startSize=0;swimlaneHead=0;swimlaneBody=0;fillColor=none;collapsible=0;dropTarget=0;points=[[0,0.5],[1,0.5]];portConstraint=eastwest;top=0;left=0;right=0;bottom=0;" vertex="1" parent="mNG93JZxVF3oCDrOEev_-88">
          <mxGeometry y="180" width="180" height="30" as="geometry" />
        </mxCell>
        <mxCell id="mNG93JZxVF3oCDrOEev_-105" value="" style="shape=partialRectangle;connectable=0;fillColor=none;top=0;left=0;bottom=0;right=0;editable=1;overflow=hidden;whiteSpace=wrap;html=1;" vertex="1" parent="mNG93JZxVF3oCDrOEev_-104">
          <mxGeometry width="30" height="30" as="geometry">
            <mxRectangle width="30" height="30" as="alternateBounds" />
          </mxGeometry>
        </mxCell>
        <mxCell id="mNG93JZxVF3oCDrOEev_-106" value="due_date" style="shape=partialRectangle;connectable=0;fillColor=none;top=0;left=0;bottom=0;right=0;align=left;spacingLeft=6;overflow=hidden;whiteSpace=wrap;html=1;" vertex="1" parent="mNG93JZxVF3oCDrOEev_-104">
          <mxGeometry x="30" width="150" height="30" as="geometry">
            <mxRectangle width="150" height="30" as="alternateBounds" />
          </mxGeometry>
        </mxCell>
        <mxCell id="mNG93JZxVF3oCDrOEev_-107" value="" style="shape=tableRow;horizontal=0;startSize=0;swimlaneHead=0;swimlaneBody=0;fillColor=none;collapsible=0;dropTarget=0;points=[[0,0.5],[1,0.5]];portConstraint=eastwest;top=0;left=0;right=0;bottom=0;" vertex="1" parent="mNG93JZxVF3oCDrOEev_-88">
          <mxGeometry y="210" width="180" height="28" as="geometry" />
        </mxCell>
        <mxCell id="mNG93JZxVF3oCDrOEev_-108" value="" style="shape=partialRectangle;connectable=0;fillColor=none;top=0;left=0;bottom=0;right=0;editable=1;overflow=hidden;whiteSpace=wrap;html=1;" vertex="1" parent="mNG93JZxVF3oCDrOEev_-107">
          <mxGeometry width="30" height="28" as="geometry">
            <mxRectangle width="30" height="28" as="alternateBounds" />
          </mxGeometry>
        </mxCell>
        <mxCell id="mNG93JZxVF3oCDrOEev_-109" value="sales_amount" style="shape=partialRectangle;connectable=0;fillColor=none;top=0;left=0;bottom=0;right=0;align=left;spacingLeft=6;overflow=hidden;whiteSpace=wrap;html=1;" vertex="1" parent="mNG93JZxVF3oCDrOEev_-107">
          <mxGeometry x="30" width="150" height="28" as="geometry">
            <mxRectangle width="150" height="28" as="alternateBounds" />
          </mxGeometry>
        </mxCell>
        <mxCell id="mNG93JZxVF3oCDrOEev_-110" value="" style="shape=tableRow;horizontal=0;startSize=0;swimlaneHead=0;swimlaneBody=0;fillColor=none;collapsible=0;dropTarget=0;points=[[0,0.5],[1,0.5]];portConstraint=eastwest;top=0;left=0;right=0;bottom=0;" vertex="1" parent="mNG93JZxVF3oCDrOEev_-88">
          <mxGeometry y="238" width="180" height="30" as="geometry" />
        </mxCell>
        <mxCell id="mNG93JZxVF3oCDrOEev_-111" value="" style="shape=partialRectangle;connectable=0;fillColor=none;top=0;left=0;bottom=0;right=0;editable=1;overflow=hidden;whiteSpace=wrap;html=1;" vertex="1" parent="mNG93JZxVF3oCDrOEev_-110">
          <mxGeometry width="30" height="30" as="geometry">
            <mxRectangle width="30" height="30" as="alternateBounds" />
          </mxGeometry>
        </mxCell>
        <mxCell id="mNG93JZxVF3oCDrOEev_-112" value="quantity" style="shape=partialRectangle;connectable=0;fillColor=none;top=0;left=0;bottom=0;right=0;align=left;spacingLeft=6;overflow=hidden;whiteSpace=wrap;html=1;" vertex="1" parent="mNG93JZxVF3oCDrOEev_-110">
          <mxGeometry x="30" width="150" height="30" as="geometry">
            <mxRectangle width="150" height="30" as="alternateBounds" />
          </mxGeometry>
        </mxCell>
        <mxCell id="mNG93JZxVF3oCDrOEev_-113" value="" style="shape=tableRow;horizontal=0;startSize=0;swimlaneHead=0;swimlaneBody=0;fillColor=none;collapsible=0;dropTarget=0;points=[[0,0.5],[1,0.5]];portConstraint=eastwest;top=0;left=0;right=0;bottom=0;" vertex="1" parent="mNG93JZxVF3oCDrOEev_-88">
          <mxGeometry y="268" width="180" height="30" as="geometry" />
        </mxCell>
        <mxCell id="mNG93JZxVF3oCDrOEev_-114" value="" style="shape=partialRectangle;connectable=0;fillColor=none;top=0;left=0;bottom=0;right=0;editable=1;overflow=hidden;whiteSpace=wrap;html=1;" vertex="1" parent="mNG93JZxVF3oCDrOEev_-113">
          <mxGeometry width="30" height="30" as="geometry">
            <mxRectangle width="30" height="30" as="alternateBounds" />
          </mxGeometry>
        </mxCell>
        <mxCell id="mNG93JZxVF3oCDrOEev_-115" value="price" style="shape=partialRectangle;connectable=0;fillColor=none;top=0;left=0;bottom=0;right=0;align=left;spacingLeft=6;overflow=hidden;whiteSpace=wrap;html=1;" vertex="1" parent="mNG93JZxVF3oCDrOEev_-113">
          <mxGeometry x="30" width="150" height="30" as="geometry">
            <mxRectangle width="150" height="30" as="alternateBounds" />
          </mxGeometry>
        </mxCell>
        <mxCell id="mNG93JZxVF3oCDrOEev_-122" value="&lt;b&gt;&lt;font style=&quot;font-size: 20px;&quot;&gt;Sales Data Mart&amp;nbsp; (Star Schema)&lt;/font&gt;&lt;/b&gt;" style="rounded=1;whiteSpace=wrap;html=1;" vertex="1" parent="1">
          <mxGeometry x="-763" y="197" width="429" height="60" as="geometry" />
        </mxCell>
        <mxCell id="mNG93JZxVF3oCDrOEev_-127" value="" style="edgeStyle=entityRelationEdgeStyle;fontSize=12;html=1;endArrow=ERzeroToMany;startArrow=ERmandOne;rounded=0;exitX=1;exitY=0.5;exitDx=0;exitDy=0;entryX=0;entryY=0.5;entryDx=0;entryDy=0;" edge="1" parent="1" source="mNG93JZxVF3oCDrOEev_-21" target="mNG93JZxVF3oCDrOEev_-95">
          <mxGeometry width="100" height="100" relative="1" as="geometry">
            <mxPoint x="-567" y="335" as="sourcePoint" />
            <mxPoint x="-467" y="235" as="targetPoint" />
          </mxGeometry>
        </mxCell>
        <mxCell id="mNG93JZxVF3oCDrOEev_-128" value="" style="edgeStyle=entityRelationEdgeStyle;fontSize=12;html=1;endArrow=ERzeroToMany;startArrow=ERmandOne;rounded=0;exitX=1;exitY=0.5;exitDx=0;exitDy=0;entryX=0;entryY=0.5;entryDx=0;entryDy=0;" edge="1" parent="1" source="mNG93JZxVF3oCDrOEev_-124" target="mNG93JZxVF3oCDrOEev_-55">
          <mxGeometry width="100" height="100" relative="1" as="geometry">
            <mxPoint x="-287" y="493" as="sourcePoint" />
            <mxPoint x="-187" y="393" as="targetPoint" />
          </mxGeometry>
        </mxCell>
      </root>
    </mxGraphModel>
  </diagram>
</mxfile>
